<svg width="25" height="24" viewBox="0 0 25 24" fill="none" xmlns="http://www.w3.org/2000/svg">
<path d="M9.5 12H5.1C4.53995 12 4.25992 12 4.04601 12.109C3.85785 12.2049 3.70487 12.3578 3.60899 12.546C3.5 12.7599 3.5 13.0399 3.5 13.6V19.4C3.5 19.9601 3.5 20.2401 3.60899 20.454C3.70487 20.6422 3.85785 20.7951 4.04601 20.891C4.25992 21 4.53995 21 5.1 21H9.5M9.5 21H15.5M9.5 21L9.5 8.6C9.5 8.03995 9.5 7.75992 9.60899 7.54601C9.70487 7.35785 9.85785 7.20487 10.046 7.10899C10.2599 7 10.5399 7 11.1 7H13.9C14.4601 7 14.7401 7 14.954 7.10899C15.1422 7.20487 15.2951 7.35785 15.391 7.54601C15.5 7.75992 15.5 8.03995 15.5 8.6V21M15.5 21H19.9C20.4601 21 20.7401 21 20.954 20.891C21.1422 20.7951 21.2951 20.6422 21.391 20.454C21.5 20.2401 21.5 19.9601 21.5 19.4V4.6C21.5 4.03995 21.5 3.75992 21.391 3.54601C21.2951 3.35785 21.1422 3.20487 20.954 3.10899C20.7401 3 20.4601 3 19.9 3H17.1C16.5399 3 16.2599 3 16.046 3.10899C15.8578 3.20487 15.7049 3.35785 15.609 3.54601C15.5 3.75992 15.5 4.03995 15.5 4.6V8" stroke="#A6A6A6" stroke-width="2" stroke-linecap="round" stroke-linejoin="round"/>
</svg>
