<svg width="32" height="32" viewBox="0 0 32 32" fill="none" xmlns="http://www.w3.org/2000/svg">
<path d="M29.3333 15.3334V19.4667C29.3333 22.4537 29.3333 23.9472 28.752 25.088C28.2407 26.0916 27.4248 26.9075 26.4212 27.4188C25.2804 28.0001 23.7869 28.0001 20.8 28.0001H11.2C8.21301 28.0001 6.71954 28.0001 5.57868 27.4188C4.57515 26.9075 3.75925 26.0916 3.24792 25.088C2.66663 23.9472 2.66663 22.4537 2.66663 19.4667V12.5334C2.66663 9.54647 2.66663 8.05299 3.24792 6.91213C3.75925 5.9086 4.57515 5.0927 5.57868 4.58138C6.71954 4.00008 8.21301 4.00008 11.2 4.00008H16.6666M25.3333 10.6667V2.66675M21.3333 6.66675H29.3333M21.3333 16.0001C21.3333 18.9456 18.9455 21.3334 16 21.3334C13.0544 21.3334 10.6666 18.9456 10.6666 16.0001C10.6666 13.0546 13.0544 10.6667 16 10.6667C18.9455 10.6667 21.3333 13.0546 21.3333 16.0001Z" stroke="url(#paint0_linear_178_3745)" stroke-width="2" stroke-linecap="round" stroke-linejoin="round"/>
<defs>
<linearGradient id="paint0_linear_178_3745" x1="16" y1="2.66675" x2="16" y2="28.0001" gradientUnits="userSpaceOnUse">
<stop stop-color="#3A8EB4"/>
<stop offset="1" stop-color="#8DC9CA"/>
</linearGradient>
</defs>
</svg>
