<svg width="107" height="107" viewBox="0 0 107 107" fill="none" xmlns="http://www.w3.org/2000/svg">
<g clip-path="url(#clip0_178_3536)">
<path d="M65.9573 50.1054C67.6791 50.1054 69.075 48.7095 69.075 46.9877C69.075 45.2659 67.6791 43.87 65.9573 43.87C64.2355 43.87 62.8396 45.2659 62.8396 46.9877C62.8396 48.7095 64.2355 50.1054 65.9573 50.1054ZM90.8989 37.6346H87.7812V34.5169C87.7812 32.7936 86.3868 31.3992 84.6635 31.3992C82.9402 31.3992 81.5458 32.7936 81.5458 34.5169V37.6346H78.4281C76.7048 37.6346 75.3104 39.029 75.3104 40.7523C75.3104 42.4756 76.7048 43.87 78.4281 43.87H81.5458V46.9877C81.5458 48.711 82.9402 50.1054 84.6635 50.1054C86.3868 50.1054 87.7812 48.711 87.7812 46.9877V43.87H90.8989C92.6222 43.87 94.0166 42.4756 94.0166 40.7523C94.0166 39.029 92.6222 37.6346 90.8989 37.6346ZM56.6042 56.3408L50.3687 84.4002L58.5371 93.5036L72.1927 93.7533L81.5458 84.4002L75.3104 56.3408H56.6042ZM56.6262 23.0491L54.6965 22.7004C60.0357 18.9828 61.6611 11.6866 58.2605 6.03645C54.6982 0.142116 47.0075 -1.75781 41.1374 1.77995C37.1854 4.16084 34.8777 8.50858 35.1151 13.1242L35.6206 22.8427L27.2722 17.8496C23.3081 15.4748 18.394 15.4748 14.4299 17.8619C8.53186 21.4082 6.62029 29.0802 10.1797 34.9789C12.5179 38.8638 16.6526 41.0134 20.8786 41.0134C23.1395 41.0145 25.3574 40.3953 27.2907 39.2232C28.7703 38.3342 29.2392 36.422 28.3503 34.9486C27.4613 33.4689 25.531 33.0123 24.0757 33.889C21.1284 35.6488 17.2984 34.711 15.5203 31.7637C13.7484 28.8165 14.6983 24.9742 17.6455 23.2083C18.614 22.6224 19.724 22.3117 20.8559 22.3095C21.9878 22.3073 23.0989 22.6139 24.0697 23.1961L32.9753 28.5207L29.4184 30.6299L27.9791 44.8488L39.0831 46.7175C51.1324 39.3458 43.1051 44.3572 55.0457 37.0526L56.6262 23.0491ZM50.789 17.807C49.4187 18.6338 48.9136 20.35 49.5594 21.7717L45.443 21.0274L41.8807 23.1398L41.3384 12.8017C41.2227 10.4877 42.3797 8.31383 44.3526 7.1264C47.3097 5.33185 51.1411 6.30894 52.914 9.25163C54.6861 12.1989 53.7363 16.0351 50.789 17.807Z" fill="url(#paint0_linear_178_3536)"/>
<path d="M97.1344 56.341H75.3104V84.4004C75.3104 85.6474 74.5622 86.7698 73.3774 87.2684C72.4629 87.7261 70.9257 87.6004 70.0105 86.5825L65.9573 82.5919L61.9041 86.5825C61.0313 87.5181 59.6593 87.7673 58.5372 87.2684C57.3524 86.77 56.6042 85.6477 56.6042 84.4004V56.341H34.7803C33.0341 56.341 31.6626 57.7126 31.6626 59.4587V97.079C31.6626 102.254 35.8401 106.432 41.0157 106.432H90.899C96.0746 106.432 100.252 102.254 100.252 97.079V59.4587C100.252 57.7126 98.8805 56.341 97.1344 56.341ZM79.114 22.5865C80.6328 21.7004 81.0599 19.8032 80.1743 18.284L76.9942 12.9837C74.292 8.48071 68.5689 7.14134 64.1492 9.74151L45.443 21.0276L55.0453 37.0528L79.114 22.5865ZM29.418 30.6301L10.7118 41.9162C6.46651 44.5384 4.75614 50.2683 7.53173 54.7612L10.7744 60.1238C11.57 61.5825 13.6052 62.0641 15.0144 61.1838L39.0831 46.7177L29.418 30.6301Z" fill="url(#paint1_linear_178_3536)"/>
</g>
<defs>
<linearGradient id="paint0_linear_178_3536" x1="30.6565" y1="6.94167" x2="175.843" y2="166.01" gradientUnits="userSpaceOnUse">
<stop stop-color="#123D50"/>
<stop offset="0.98" stop-color="#829598"/>
<stop offset="1" stop-color="#F9FDFF"/>
</linearGradient>
<linearGradient id="paint1_linear_178_3536" x1="42.8034" y1="-1.7345" x2="107.588" y2="120.893" gradientUnits="userSpaceOnUse">
<stop stop-color="#78BFC1"/>
<stop offset="0.3049" stop-color="#67B2BE"/>
<stop offset="0.305" stop-color="#67B2BE"/>
<stop offset="1" stop-color="#3F93B8"/>
</linearGradient>
<clipPath id="clip0_178_3536">
<rect width="106.431" height="106.431" fill="white"/>
</clipPath>
</defs>
</svg>
