<svg width="73" height="79" viewBox="0 0 73 79" fill="none" xmlns="http://www.w3.org/2000/svg">
<g opacity="0.2" clip-path="url(#clip0_178_3218)">
<path d="M55.3509 65.9549L39.5412 61.3856L23.7314 65.9549C23.5945 66.229 23.5488 66.5032 23.5488 66.823V76.2661H55.5335V66.823C55.5335 66.5032 55.4878 66.229 55.3509 65.9549Z" fill="#646D73"/>
<path d="M55.5335 76.2661V66.823C55.5335 66.5032 55.4878 66.229 55.3509 65.9549L39.5411 61.3856V76.2661H55.5335Z" fill="#474F54"/>
<path d="M76.2474 5.13766H64.5738C64.5939 4.36592 64.672 3.63895 64.672 2.85304C64.672 1.5735 63.6669 0.56842 62.3874 0.56842H16.6949C15.4154 0.56842 14.4103 1.5735 14.4103 2.85304C14.4103 3.63895 14.4885 4.36592 14.5083 5.13766H2.83491C1.57213 5.13766 0.550293 6.1595 0.550293 7.42228V13.2097C0.550293 25.9661 10.7689 36.3287 23.3619 36.9958C25.9854 40.6079 29.0991 43.2885 32.6416 44.7987C32.0933 55.9019 25.742 63.624 24.2344 65.2233C24.0057 65.406 23.823 65.6801 23.7316 65.9543H55.3509C55.2593 65.6801 55.0767 65.406 54.8481 65.2233C53.2946 63.624 46.989 55.9476 46.4407 44.7987C49.984 43.2882 53.1164 40.607 55.742 36.9935C68.3242 36.3156 78.532 25.9589 78.532 13.2097V7.42228C78.532 6.1595 77.5102 5.13766 76.2474 5.13766ZM5.11953 13.2097V9.7069H14.7043C15.2972 17.258 16.9347 25.2554 20.3762 32.0517C11.7495 30.109 5.11953 22.4159 5.11953 13.2097ZM73.9628 13.2097C73.9628 22.4112 67.3388 30.1006 58.7184 32.0478C62.1327 25.2516 63.7793 17.3316 64.378 9.7069H73.9628V13.2097Z" fill="#FED843"/>
<path d="M76.2474 5.13791H64.5737C64.5938 4.36616 64.672 3.63919 64.672 2.85329C64.672 1.57375 63.6669 0.568665 62.3873 0.568665H39.5411V65.9545H55.3509C55.2593 65.6804 55.0767 65.4062 54.8481 65.2236C53.2946 63.6242 46.989 55.9479 46.4407 44.7989C49.984 43.2885 53.1164 40.6073 55.742 36.9937C68.3242 36.3158 78.532 25.9592 78.532 13.2099V7.42253C78.532 6.15974 77.5102 5.13791 76.2474 5.13791ZM73.9628 13.2099C73.9628 22.4115 67.3387 30.1009 58.7184 32.048C62.133 25.2519 63.7796 17.3318 64.378 9.70715H73.9628V13.2099Z" fill="#FABE2C"/>
<path d="M43.1873 29.6283L39.5416 27.734L35.896 29.6283C35.1329 30.0209 34.2003 29.9562 33.4999 29.4498C33.1565 29.2006 32.8895 28.8607 32.7287 28.4681C32.5679 28.0756 32.5197 27.646 32.5895 27.2276L33.2589 23.1692L30.3363 20.2845C29.7001 19.6643 29.5056 18.7448 29.7651 17.9508C29.8968 17.5474 30.1381 17.1886 30.4619 16.9144C30.7858 16.6402 31.1795 16.4614 31.5991 16.398L35.6596 15.7867L37.498 12.1121C38.2744 10.5637 40.8088 10.5637 41.5853 12.1121L43.4236 15.7867L47.4842 16.398C47.9037 16.4615 48.2974 16.6403 48.6212 16.9145C48.9451 17.1887 49.1864 17.5475 49.3181 17.9508C49.45 18.3544 49.4664 18.7867 49.3655 19.1991C49.2645 19.6115 49.0503 19.9874 48.747 20.2845L45.8243 23.1692L46.4937 27.2276C46.5636 27.646 46.5154 28.0756 46.3546 28.4681C46.1938 28.8607 45.9267 29.2006 45.5834 29.4498C44.8875 29.954 43.9566 30.0285 43.1873 29.6283Z" fill="#FABE2C"/>
<path d="M43.1868 29.6283C43.9562 30.0286 44.8871 29.9541 45.5829 29.4498C45.9262 29.2007 46.1933 28.8607 46.3541 28.4682C46.5149 28.0757 46.5631 27.6461 46.4932 27.2277L45.8238 23.1693L48.7465 20.2845C49.0498 19.9875 49.264 19.6116 49.365 19.1992C49.4659 18.7868 49.4495 18.3544 49.3176 17.9509C49.1859 17.5475 48.9447 17.1887 48.6208 16.9145C48.297 16.6403 47.9033 16.4615 47.4837 16.3981L43.4232 15.7867L41.5848 12.1122C41.1966 11.338 40.3689 10.9508 39.5411 10.9508V27.7341L43.1868 29.6283Z" fill="#FF9100"/>
<path d="M57.8182 78.5506H21.2642C20.0014 78.5506 18.9796 77.5288 18.9796 76.266C18.9796 75.0032 20.0014 73.9814 21.2642 73.9814H57.8182C59.081 73.9814 60.1028 75.0032 60.1028 76.266C60.1028 77.5288 59.081 78.5506 57.8182 78.5506Z" fill="#474F54"/>
<path d="M57.8181 73.9814H39.5411V78.5506H57.8181C59.0809 78.5506 60.1027 77.5288 60.1027 76.266C60.1027 75.0032 59.0809 73.9814 57.8181 73.9814Z" fill="#32393F"/>
</g>
<defs>
<clipPath id="clip0_178_3218">
<rect width="72.2478" height="77.9817" fill="white" transform="translate(0.550293 0.56842)"/>
</clipPath>
</defs>
</svg>
