<svg width="21" height="20" viewBox="0 0 21 20" fill="none" xmlns="http://www.w3.org/2000/svg">
<g clip-path="url(#clip0_2027_232)">
<path d="M15.4478 11.3349C18.0382 8.7453 18.0382 4.53175 15.4478 1.94218C12.8574 -0.647433 8.6426 -0.647433 6.05217 1.94218C3.46178 4.53175 3.46178 8.7453 6.05217 11.3349C7.14865 12.431 8.53619 13.063 9.96834 13.2312V15.4548H8.40514C7.97346 15.4548 7.62354 15.8046 7.62354 16.2361C7.62354 16.6676 7.97346 17.0175 8.40514 17.0175H9.96834V19.2186C9.96838 19.6501 10.3183 20 10.75 20C11.1817 20 11.5316 19.6501 11.5316 19.2186V17.0175H13.0949C13.5265 17.0175 13.8765 16.6676 13.8765 16.2361C13.8765 15.8046 13.5265 15.4548 13.0949 15.4548H11.5316V13.2312C12.9638 13.063 14.3513 12.431 15.4478 11.3349ZM7.15756 10.2298C5.17666 8.24956 5.17666 5.02745 7.15756 3.04718C9.13842 1.06698 12.3615 1.06686 14.3425 3.04718C16.3234 5.02745 16.3234 8.24956 14.3425 10.2298C12.3616 12.2101 9.13846 12.2101 7.15756 10.2298Z" fill="#525766"/>
</g>
<defs>
<clipPath id="clip0_2027_232">
<rect width="20" height="20" fill="white" transform="translate(0.75)"/>
</clipPath>
</defs>
</svg>
