<svg width="88" height="88" viewBox="0 0 88 88" fill="none" xmlns="http://www.w3.org/2000/svg">
<g filter="url(#filter0_d_333_8916)">
<path d="M39.1 13.6C39.1 12.882 39.6821 12.3 40.4 12.3H46.8C46.8485 12.3 46.895 12.3193 46.9293 12.3536L51.2465 16.6707C51.2808 16.705 51.3 16.7515 51.3 16.8V26.4C51.3 27.118 50.718 27.7 50 27.7H40.4001C39.6821 27.7 39.1 27.118 39.1 26.4V13.6Z" fill="white" stroke="#D0D5DD" stroke-width="0.6"/>
<path d="M46.8 12.2V15.2C46.8 16.0837 47.5164 16.8 48.4 16.8H51.4" stroke="#D0D5DD" stroke-width="0.6"/>
<rect x="36.4" y="19.2" width="10.4" height="6.6" rx="0.8" fill="#D92D20"/>
<path d="M37.9329 24V21.0909H39.0806C39.3013 21.0909 39.4892 21.133 39.6445 21.2173C39.7998 21.3007 39.9182 21.4167 39.9997 21.5653C40.082 21.7131 40.1232 21.8835 40.1232 22.0767C40.1232 22.2699 40.0816 22.4403 39.9982 22.5881C39.9149 22.7358 39.7942 22.8509 39.636 22.9332C39.4788 23.0156 39.2885 23.0568 39.065 23.0568H38.3335V22.5639H38.9656C39.0839 22.5639 39.1815 22.5436 39.2582 22.5028C39.3358 22.4612 39.3936 22.4039 39.4315 22.331C39.4703 22.2571 39.4897 22.1723 39.4897 22.0767C39.4897 21.9801 39.4703 21.8958 39.4315 21.8239C39.3936 21.7509 39.3358 21.6946 39.2582 21.6548C39.1805 21.6141 39.082 21.5938 38.9627 21.5938H38.548V24H37.9329ZM41.554 24H40.5227V21.0909H41.5625C41.8551 21.0909 42.107 21.1491 42.3182 21.2656C42.5294 21.3812 42.6918 21.5473 42.8054 21.7642C42.92 21.9811 42.9773 22.2405 42.9773 22.5426C42.9773 22.8456 42.92 23.1061 42.8054 23.3239C42.6918 23.5417 42.5284 23.7088 42.3154 23.8253C42.1032 23.9418 41.8494 24 41.554 24ZM41.1378 23.473H41.5284C41.7102 23.473 41.8632 23.4408 41.9872 23.3764C42.1122 23.3111 42.206 23.2102 42.2685 23.0739C42.3319 22.9366 42.3636 22.7595 42.3636 22.5426C42.3636 22.3277 42.3319 22.152 42.2685 22.0156C42.206 21.8793 42.1127 21.7789 41.9886 21.7145C41.8646 21.6501 41.7117 21.6179 41.5298 21.6179H41.1378V23.473ZM43.4329 24V21.0909H45.359V21.598H44.048V22.2912H45.2312V22.7983H44.048V24H43.4329Z" fill="white"/>
</g>
<defs>
<filter id="filter0_d_333_8916" x="0" y="0" width="88" height="88" filterUnits="userSpaceOnUse" color-interpolation-filters="sRGB">
<feFlood flood-opacity="0" result="BackgroundImageFix"/>
<feColorMatrix in="SourceAlpha" type="matrix" values="0 0 0 0 0 0 0 0 0 0 0 0 0 0 0 0 0 0 127 0" result="hardAlpha"/>
<feMorphology radius="12" operator="erode" in="SourceAlpha" result="effect1_dropShadow_333_8916"/>
<feOffset dy="24"/>
<feGaussianBlur stdDeviation="24"/>
<feColorMatrix type="matrix" values="0 0 0 0 0.0625882 0 0 0 0 0.0926346 0 0 0 0 0.15702 0 0 0 0.18 0"/>
<feBlend mode="normal" in2="BackgroundImageFix" result="effect1_dropShadow_333_8916"/>
<feBlend mode="normal" in="SourceGraphic" in2="effect1_dropShadow_333_8916" result="shape"/>
</filter>
</defs>
</svg>
