<svg width="62" height="68" viewBox="0 0 62 68" fill="none" xmlns="http://www.w3.org/2000/svg">
<path d="M39.1408 32.0129C40.2408 32.0129 41.1327 31.121 41.1327 30.0209C41.1327 28.9209 40.2408 28.029 39.1408 28.029C38.0407 28.029 37.1488 28.9209 37.1488 30.0209C37.1488 31.121 38.0407 32.0129 39.1408 32.0129ZM55.0762 24.0451H53.0843V22.0532C53.0843 20.9522 52.1934 20.0613 51.0923 20.0613C49.9913 20.0613 49.1004 20.9522 49.1004 22.0532V24.0451H47.1085C46.0075 24.0451 45.1166 24.9361 45.1166 26.0371C45.1166 27.1381 46.0075 28.029 47.1085 28.029H49.1004V30.0209C49.1004 31.1219 49.9913 32.0129 51.0923 32.0129C52.1934 32.0129 53.0843 31.1219 53.0843 30.0209V28.029H55.0762C56.1772 28.029 57.0681 27.1381 57.0681 26.0371C57.0681 24.9361 56.1772 24.0451 55.0762 24.0451ZM33.165 35.9967L29.1811 53.9241L34.4 59.7404L43.1246 59.8999L49.1004 53.9241L45.1166 35.9967H33.165ZM33.179 14.7264L31.9462 14.5035C35.3574 12.1284 36.3959 7.46671 34.2232 3.8568C31.9472 0.0908533 27.0335 -1.12303 23.2831 1.13728C20.7582 2.65845 19.2837 5.43627 19.4354 8.38525L19.7583 14.5945L14.4245 11.4044C11.8918 9.88704 8.75213 9.88704 6.21946 11.4122C2.45112 13.6779 1.2298 18.5797 3.50393 22.3484C4.99787 24.8305 7.63957 26.2039 10.3396 26.2039C11.7841 26.2046 13.2011 25.809 14.4363 25.0601C15.3817 24.4921 15.6813 23.2704 15.1133 22.329C14.5453 21.3837 13.3121 21.0919 12.3822 21.652C10.4992 22.7764 8.05217 22.1772 6.9161 20.2942C5.78402 18.4112 6.3909 15.9563 8.27394 14.8281C8.89272 14.4537 9.60186 14.2552 10.3251 14.2538C11.0483 14.2524 11.7582 14.4483 12.3784 14.8203L18.0683 18.2222L15.7957 19.5698L14.8761 28.6543L21.9706 29.8483C29.669 25.1385 24.5403 28.3403 32.1693 23.6733L33.179 14.7264ZM29.4496 11.3771C28.5741 11.9054 28.2514 13.0019 28.664 13.9102L26.034 13.4347L23.758 14.7843L23.4115 8.17915C23.3376 6.70074 24.0769 5.31184 25.3373 4.55318C27.2266 3.40662 29.6746 4.03089 30.8073 5.91101C31.9395 7.79405 31.3327 10.2451 29.4496 11.3771Z" fill="url(#paint0_linear_2003_162)"/>
<path d="M59.0601 35.9968H45.1166V53.9242C45.1166 54.721 44.6385 55.4381 43.8816 55.7566C43.2973 56.0491 42.3151 55.9687 41.7304 55.3184L39.1408 52.7688L36.5512 55.3184C35.9935 55.9161 35.117 56.0754 34.4 55.7566C33.6431 55.4382 33.165 54.7211 33.165 53.9242V35.9968H19.2215C18.1059 35.9968 17.2296 36.8731 17.2296 37.9888V62.0247C17.2296 65.3311 19.8986 68.0005 23.2053 68.0005H55.0762C58.383 68.0005 61.052 65.3311 61.052 62.0247V37.9888C61.052 36.8731 60.1757 35.9968 59.0601 35.9968ZM47.5467 14.4307C48.5171 13.8646 48.79 12.6525 48.2241 11.6819L46.1924 8.29545C44.4659 5.41844 40.8094 4.5627 37.9856 6.22397L26.034 13.4348L32.169 23.6734L47.5467 14.4307ZM15.7955 19.5699L3.84391 26.7807C1.13157 28.456 0.0387926 32.1169 1.81214 34.9875L3.88388 38.4137C4.39222 39.3457 5.69256 39.6534 6.59291 39.091L21.9706 29.8484L15.7955 19.5699Z" fill="white"/>
<defs>
<linearGradient id="paint0_linear_2003_162" x1="16.5868" y1="4.43515" x2="109.348" y2="106.066" gradientUnits="userSpaceOnUse">
<stop stop-color="#123D50"/>
<stop offset="0.98" stop-color="#829598"/>
<stop offset="1" stop-color="#F9FDFF"/>
</linearGradient>
</defs>
</svg>
