<svg width="38" height="38" viewBox="0 0 38 38" fill="none" xmlns="http://www.w3.org/2000/svg">
<g clip-path="url(#clip0_178_3021)">
<path d="M21.1481 3.85453C21.1481 3.39885 21.013 2.9534 20.7598 2.57452C20.5067 2.19564 20.1468 1.90033 19.7259 1.72595C19.3049 1.55157 18.8416 1.50594 18.3947 1.59484C17.9478 1.68374 17.5372 1.90317 17.215 2.22539C16.8928 2.5476 16.6734 2.95813 16.5845 3.40505C16.4956 3.85198 16.5412 4.31523 16.7156 4.73622C16.89 5.15721 17.1853 5.51704 17.5642 5.7702C17.943 6.02337 18.3885 6.15849 18.8442 6.15849C19.4552 6.15849 20.0412 5.91575 20.4733 5.48368C20.9054 5.0516 21.1481 4.46558 21.1481 3.85453ZM18.8442 5.00651C18.6163 5.00651 18.3936 4.93895 18.2042 4.81237C18.0147 4.68579 17.8671 4.50587 17.7799 4.29538C17.6927 4.08488 17.6699 3.85325 17.7143 3.62979C17.7588 3.40633 17.8685 3.20107 18.0296 3.03996C18.1907 2.87885 18.396 2.76914 18.6194 2.72469C18.8429 2.68024 19.0745 2.70305 19.285 2.79024C19.4955 2.87743 19.6754 3.02508 19.802 3.21453C19.9286 3.40397 19.9961 3.62669 19.9961 3.85453C19.9961 4.16006 19.8748 4.45307 19.6587 4.6691C19.4427 4.88514 19.1497 5.00651 18.8442 5.00651Z" fill="url(#paint0_linear_178_3021)"/>
<path d="M31.5159 9.61443C31.5159 9.15875 31.3808 8.7133 31.1277 8.33442C30.8745 7.95554 30.5147 7.66023 30.0937 7.48585C29.6727 7.31147 29.2094 7.26584 28.7625 7.35474C28.3156 7.44364 27.9051 7.66307 27.5828 7.98529C27.2606 8.3075 27.0412 8.71803 26.9523 9.16495C26.8634 9.61188 26.909 10.0751 27.0834 10.4961C27.2578 10.9171 27.5531 11.2769 27.932 11.5301C28.3109 11.7833 28.7563 11.9184 29.212 11.9184C29.823 11.9184 30.409 11.6757 30.8411 11.2436C31.2732 10.8115 31.5159 10.2255 31.5159 9.61443ZM29.212 10.7664C28.9841 10.7664 28.7614 10.6988 28.572 10.5723C28.3825 10.4457 28.2349 10.2658 28.1477 10.0553C28.0605 9.84478 28.0377 9.61315 28.0821 9.38969C28.1266 9.16623 28.2363 8.96097 28.3974 8.79986C28.5585 8.63875 28.7638 8.52904 28.9872 8.48459C29.2107 8.44014 29.4423 8.46295 29.6528 8.55014C29.8633 8.63733 30.0432 8.78498 30.1698 8.97443C30.2964 9.16387 30.364 9.38659 30.364 9.61443C30.364 9.91996 30.2426 10.213 30.0266 10.429C29.8105 10.645 29.5175 10.7664 29.212 10.7664Z" fill="url(#paint1_linear_178_3021)"/>
<path d="M10.7803 9.61443C10.7803 9.15875 10.6452 8.7133 10.392 8.33442C10.1389 7.95554 9.77904 7.66023 9.35804 7.48585C8.93705 7.31147 8.4738 7.26584 8.02687 7.35474C7.57995 7.44364 7.16942 7.66307 6.84721 7.98529C6.52499 8.3075 6.30556 8.71803 6.21666 9.16495C6.12777 9.61188 6.17339 10.0751 6.34777 10.4961C6.52215 10.9171 6.81746 11.2769 7.19634 11.5301C7.57523 11.7833 8.02067 11.9184 8.47635 11.9184C9.0874 11.9184 9.67342 11.6757 10.1055 11.2436C10.5376 10.8115 10.7803 10.2255 10.7803 9.61443ZM8.47635 10.7664C8.24851 10.7664 8.02579 10.6988 7.83635 10.5723C7.64691 10.4457 7.49925 10.2658 7.41206 10.0553C7.32487 9.84478 7.30206 9.61315 7.34651 9.38969C7.39096 9.16623 7.50067 8.96097 7.66178 8.79986C7.82289 8.63875 8.02815 8.52904 8.25161 8.48459C8.47508 8.44014 8.7067 8.46295 8.9172 8.55014C9.12769 8.63733 9.30761 8.78498 9.43419 8.97443C9.56077 9.16387 9.62833 9.38659 9.62833 9.61443C9.62833 9.91996 9.50697 10.213 9.29093 10.429C9.07489 10.645 8.78188 10.7664 8.47635 10.7664Z" fill="url(#paint2_linear_178_3021)"/>
<path d="M19.9961 30.9261H19.4202V26.8941C19.4207 26.7957 19.396 26.6988 19.3484 26.6126C19.3008 26.5264 19.232 26.4539 19.1484 26.4019C19.0648 26.3499 18.9693 26.3202 18.8709 26.3156C18.7726 26.311 18.6747 26.3317 18.5867 26.3757L17.4347 26.9517C17.367 26.9855 17.3066 27.0324 17.257 27.0895C17.2074 27.1466 17.1696 27.213 17.1456 27.2848C17.1216 27.3566 17.1121 27.4323 17.1174 27.5078C17.1227 27.5833 17.1429 27.657 17.1767 27.7247C17.2105 27.7924 17.2573 27.8528 17.3144 27.9024C17.3716 27.952 17.4379 27.9899 17.5097 28.0138C17.5815 28.0378 17.6573 28.0474 17.7328 28.042C17.8083 28.0367 17.882 28.0166 17.9496 27.9828L18.2682 27.8261V30.9261H17.6922C17.5394 30.9261 17.3929 30.9867 17.2849 31.0948C17.1769 31.2028 17.1162 31.3493 17.1162 31.5021C17.1162 31.6548 17.1769 31.8013 17.2849 31.9093C17.3929 32.0174 17.5394 32.078 17.6922 32.078H19.9961C20.1489 32.078 20.2954 32.0174 20.4034 31.9093C20.5114 31.8013 20.5721 31.6548 20.5721 31.5021C20.5721 31.3493 20.5114 31.2028 20.4034 31.0948C20.2954 30.9867 20.1489 30.9261 19.9961 30.9261Z" fill="url(#paint3_linear_178_3021)"/>
<path d="M9.05233 28.0457H7.90035C7.44206 28.0457 7.00255 28.2277 6.67849 28.5518C6.35443 28.8759 6.17238 29.3154 6.17238 29.7737C6.17238 29.9264 6.23306 30.0729 6.34108 30.1809C6.4491 30.289 6.59561 30.3497 6.74837 30.3497C6.90113 30.3497 7.04764 30.289 7.15565 30.1809C7.26367 30.0729 7.32436 29.9264 7.32436 29.7737C7.32436 29.6209 7.38504 29.4744 7.49306 29.3664C7.60108 29.2584 7.74759 29.1977 7.90035 29.1977H9.05233C9.20509 29.1977 9.3516 29.2584 9.45961 29.3664C9.56763 29.4744 9.62832 29.6209 9.62832 29.7737V30.0956C9.62823 30.2165 9.59013 30.3342 9.51943 30.4322C9.44872 30.5302 9.34899 30.6035 9.23434 30.6417L7.35373 31.2712C7.01018 31.3858 6.7113 31.6054 6.49932 31.899C6.28734 32.1927 6.17298 32.5455 6.17238 32.9076V33.2296C6.17238 33.3824 6.23306 33.5289 6.34108 33.6369C6.4491 33.7449 6.59561 33.8056 6.74837 33.8056H10.2043C10.3571 33.8056 10.5036 33.7449 10.6116 33.6369C10.7196 33.5289 10.7803 33.3824 10.7803 33.2296C10.7803 33.0768 10.7196 32.9303 10.6116 32.8223C10.5036 32.7143 10.3571 32.6536 10.2043 32.6536H7.38196C7.41563 32.5852 7.46256 32.5242 7.52 32.474C7.57745 32.4239 7.64428 32.3857 7.71661 32.3616L9.59721 31.7349C9.94156 31.6205 10.2411 31.4006 10.4535 31.1063C10.6658 30.8121 10.7802 30.4585 10.7803 30.0956V29.7737C10.7803 29.3154 10.5982 28.8759 10.2742 28.5518C9.95013 28.2277 9.51061 28.0457 9.05233 28.0457Z" fill="url(#paint4_linear_178_3021)"/>
<path d="M29.788 28.0457H28.06C27.7545 28.0457 27.4615 28.1671 27.2454 28.3831C27.0294 28.5992 26.908 28.8922 26.908 29.1977C26.908 29.3505 26.9687 29.497 27.0767 29.605C27.1848 29.713 27.3313 29.7737 27.484 29.7737C27.6368 29.7737 27.7833 29.713 27.8913 29.605C27.9993 29.497 28.06 29.3505 28.06 29.1977H29.788C29.9407 29.1977 30.0873 29.2584 30.1953 29.3664C30.3033 29.4744 30.364 29.6209 30.364 29.7737C30.364 29.9264 30.3033 30.0729 30.1953 30.181C30.0873 30.289 29.9407 30.3497 29.788 30.3497H28.636C28.4832 30.3497 28.3367 30.4104 28.2287 30.5184C28.1207 30.6264 28.06 30.7729 28.06 30.9257C28.06 31.0784 28.1207 31.2249 28.2287 31.3329C28.3367 31.441 28.4832 31.5016 28.636 31.5016H29.788C29.9407 31.5016 30.0873 31.5623 30.1953 31.6704C30.3033 31.7784 30.364 31.9249 30.364 32.0776C30.364 32.2304 30.3033 32.3769 30.1953 32.4849C30.0873 32.5929 29.9407 32.6536 29.788 32.6536H28.06C28.06 32.5009 27.9993 32.3544 27.8913 32.2463C27.7833 32.1383 27.6368 32.0776 27.484 32.0776C27.3313 32.0776 27.1848 32.1383 27.0767 32.2463C26.9687 32.3544 26.908 32.5009 26.908 32.6536C26.908 32.9592 27.0294 33.2522 27.2454 33.4682C27.4615 33.6842 27.7545 33.8056 28.06 33.8056H29.788C30.1222 33.8071 30.4496 33.7112 30.7302 33.5297C31.0108 33.3481 31.2324 33.0888 31.3681 32.7833C31.5037 32.4779 31.5474 32.1395 31.4939 31.8096C31.4404 31.4797 31.2919 31.1726 31.0667 30.9257C31.2919 30.6787 31.4404 30.3716 31.4939 30.0417C31.5474 29.7118 31.5037 29.3735 31.3681 29.068C31.2324 28.7626 31.0108 28.5032 30.7302 28.3217C30.4496 28.1401 30.1222 28.0442 29.788 28.0457Z" fill="url(#paint5_linear_178_3021)"/>
<path d="M35.5479 34.958H34.9719V26.3182C34.9719 26.1654 34.9112 26.0189 34.8032 25.9109C34.6952 25.8029 34.5487 25.7422 34.3959 25.7422H32.0919V18.8303H33.8199C33.9727 18.8303 34.1192 18.7696 34.2272 18.6616C34.3352 18.5536 34.3959 18.4071 34.3959 18.2543V14.7984C34.3959 14.0345 34.0925 13.302 33.5524 12.7619C33.0123 12.2218 32.2798 11.9184 31.5159 11.9184H26.908C26.1442 11.9184 25.4117 12.2218 24.8716 12.7619C24.3315 13.302 24.0281 14.0345 24.0281 14.7984V18.2543C24.0281 18.4071 24.0888 18.5536 24.1968 18.6616C24.3048 18.7696 24.4513 18.8303 24.6041 18.8303H26.332V25.7422H24.6041V22.8622C24.6041 22.7095 24.5434 22.5629 24.4354 22.4549C24.3273 22.3469 24.1808 22.2862 24.0281 22.2862H21.7241V15.3743C21.8769 15.3743 22.0234 15.3137 22.1314 15.2056C22.2394 15.0976 22.3001 14.9511 22.3001 14.7984V9.03846H24.0281C24.7919 9.03846 25.5244 8.73504 26.0645 8.19494C26.6046 7.65485 26.908 6.92232 26.908 6.15851V2.99057C26.908 2.60866 26.7563 2.2424 26.4863 1.97235C26.2162 1.7023 25.85 1.55059 25.4681 1.55059C25.0861 1.55059 24.7199 1.7023 24.4498 1.97235C24.1798 2.2424 24.0281 2.60866 24.0281 2.99057V5.58252C24.0281 5.73528 23.9674 5.88179 23.8594 5.98981C23.7514 6.09783 23.6048 6.15851 23.4521 6.15851H14.2362C14.0835 6.15851 13.937 6.09783 13.829 5.98981C13.7209 5.88179 13.6603 5.73528 13.6603 5.58252V2.99057C13.6603 2.60866 13.5085 2.2424 13.2385 1.97235C12.9684 1.7023 12.6022 1.55059 12.2203 1.55059C11.8384 1.55059 11.4721 1.7023 11.2021 1.97235C10.932 2.2424 10.7803 2.60866 10.7803 2.99057V6.15851C10.7803 6.92232 11.0837 7.65485 11.6238 8.19494C12.1639 8.73504 12.8964 9.03846 13.6603 9.03846H15.3882V14.7984C15.3882 14.9511 15.4489 15.0976 15.5569 15.2056C15.6649 15.3137 15.8115 15.3743 15.9642 15.3743V22.2862H13.6603C13.5075 22.2862 13.361 22.3469 13.253 22.4549C13.145 22.5629 13.0843 22.7095 13.0843 22.8622V25.7422H11.3563V18.8303H13.0843C13.237 18.8303 13.3835 18.7696 13.4916 18.6616C13.5996 18.5536 13.6603 18.4071 13.6603 18.2543V14.7984C13.6603 14.4202 13.5858 14.0457 13.441 13.6962C13.2963 13.3468 13.0842 13.0294 12.8167 12.7619C12.5493 12.4945 12.2318 12.2824 11.8824 12.1376C11.533 11.9929 11.1585 11.9184 10.7803 11.9184H6.17239C5.40858 11.9184 4.67605 12.2218 4.13596 12.7619C3.59586 13.302 3.29244 14.0345 3.29244 14.7984V18.2543C3.29244 18.4071 3.35312 18.5536 3.46114 18.6616C3.56916 18.7696 3.71567 18.8303 3.86843 18.8303H5.5964V25.7422H3.29244C3.13968 25.7422 2.99317 25.8029 2.88515 25.9109C2.77713 26.0189 2.71645 26.1654 2.71645 26.3182V34.958H2.14046C1.9877 34.958 1.84119 35.0187 1.73317 35.1267C1.62515 35.2347 1.56447 35.3812 1.56447 35.534C1.56447 35.6868 1.62515 35.8333 1.73317 35.9413C1.84119 36.0493 1.9877 36.11 2.14046 36.11H35.5479C35.7006 36.11 35.8471 36.0493 35.9552 35.9413C36.0632 35.8333 36.1239 35.6868 36.1239 35.534C36.1239 35.3812 36.0632 35.2347 35.9552 35.1267C35.8471 35.0187 35.7006 34.958 35.5479 34.958ZM4.44442 17.6783V14.7984C4.44579 14.3405 4.62828 13.9018 4.95204 13.578C5.2758 13.2542 5.71452 13.0718 6.17239 13.0704H10.7803C11.2382 13.0718 11.6769 13.2542 12.0007 13.578C12.3244 13.9018 12.5069 14.3405 12.5083 14.7984V17.6783H11.3563V14.7984C11.3563 14.6456 11.2956 14.4991 11.1876 14.3911C11.0796 14.2831 10.9331 14.2224 10.7803 14.2224C10.6275 14.2224 10.481 14.2831 10.373 14.3911C10.265 14.4991 10.2043 14.6456 10.2043 14.7984V18.8303H6.74838V14.7984C6.74838 14.6456 6.68769 14.4991 6.57967 14.3911C6.47165 14.2831 6.32515 14.2224 6.17239 14.2224C6.01963 14.2224 5.87312 14.2831 5.7651 14.3911C5.65708 14.4991 5.5964 14.6456 5.5964 14.7984V17.6783H4.44442ZM10.2043 19.9823V25.7422H9.05234V19.9823H10.2043ZM7.90036 19.9823V25.7422H6.74838V19.9823H7.90036ZM13.0843 34.958H3.86843V26.8941H13.0843V34.958ZM13.6603 7.88648C13.2024 7.88511 12.7637 7.70262 12.4399 7.37886C12.1161 7.0551 11.9337 6.61637 11.9323 6.15851V2.99057C11.9323 2.91418 11.9626 2.84093 12.0166 2.78692C12.0706 2.73291 12.1439 2.70257 12.2203 2.70257C12.2967 2.70257 12.3699 2.73291 12.4239 2.78692C12.4779 2.84093 12.5083 2.91418 12.5083 2.99057V5.58252C12.5096 6.04039 12.6921 6.47911 13.0159 6.80287C13.3397 7.12663 13.7784 7.30912 14.2362 7.31049H23.4521C23.91 7.30912 24.3487 7.12663 24.6724 6.80287C24.9962 6.47911 25.1787 6.04039 25.1801 5.58252V2.99057C25.1801 2.91418 25.2104 2.84093 25.2644 2.78692C25.3184 2.73291 25.3917 2.70257 25.4681 2.70257C25.5444 2.70257 25.6177 2.73291 25.6717 2.78692C25.7257 2.84093 25.756 2.91418 25.756 2.99057V6.15851C25.7547 6.61637 25.5722 7.0551 25.2484 7.37886C24.9247 7.70262 24.4859 7.88511 24.0281 7.88648H21.7241C21.5714 7.88648 21.4248 7.94716 21.3168 8.05518C21.2088 8.1632 21.1481 8.30971 21.1481 8.46247V14.2224H16.5402V8.46247C16.5402 8.30971 16.4795 8.1632 16.3715 8.05518C16.2635 7.94716 16.117 7.88648 15.9642 7.88648H13.6603ZM20.5721 15.3743V22.2862H19.4202V15.3743H20.5721ZM18.2682 15.3743V22.2862H17.1162V15.3743H18.2682ZM23.4521 34.958H14.2362V23.4382H23.4521V34.958ZM25.1801 17.6783V14.7984C25.1814 14.3405 25.3639 13.9018 25.6877 13.578C26.0114 13.2542 26.4502 13.0718 26.908 13.0704H31.5159C31.9738 13.0718 32.4125 13.2542 32.7363 13.578C33.0601 13.9018 33.2425 14.3405 33.2439 14.7984V17.6783H32.0919V14.7984C32.0919 14.6456 32.0312 14.4991 31.9232 14.3911C31.8152 14.2831 31.6687 14.2224 31.5159 14.2224C31.3632 14.2224 31.2167 14.2831 31.1087 14.3911C31.0006 14.4991 30.94 14.6456 30.94 14.7984V18.8303H27.484V14.7984C27.484 14.6456 27.4233 14.4991 27.3153 14.3911C27.2073 14.2831 27.0608 14.2224 26.908 14.2224C26.7553 14.2224 26.6088 14.2831 26.5007 14.3911C26.3927 14.4991 26.332 14.6456 26.332 14.7984V17.6783H25.1801ZM30.94 19.9823V25.7422H29.788V19.9823H30.94ZM28.636 19.9823V25.7422H27.484V19.9823H28.636ZM33.8199 34.958H24.6041V26.8941H33.8199V34.958Z" fill="url(#paint6_linear_178_3021)"/>
</g>
<defs>
<linearGradient id="paint0_linear_178_3021" x1="19.8185" y1="1.30578" x2="15.9834" y2="6.34569" gradientUnits="userSpaceOnUse">
<stop stop-color="#7BC2BF"/>
<stop offset="1" stop-color="#368BB3"/>
</linearGradient>
<linearGradient id="paint1_linear_178_3021" x1="30.1864" y1="7.06568" x2="26.3512" y2="12.1056" gradientUnits="userSpaceOnUse">
<stop stop-color="#7BC2BF"/>
<stop offset="1" stop-color="#368BB3"/>
</linearGradient>
<linearGradient id="paint2_linear_178_3021" x1="9.45074" y1="7.06568" x2="5.6156" y2="12.1056" gradientUnits="userSpaceOnUse">
<stop stop-color="#7BC2BF"/>
<stop offset="1" stop-color="#368BB3"/>
</linearGradient>
<linearGradient id="paint3_linear_178_3021" x1="19.5749" y1="26.0088" x2="14.7361" y2="29.8223" gradientUnits="userSpaceOnUse">
<stop stop-color="#7BC2BF"/>
<stop offset="1" stop-color="#368BB3"/>
</linearGradient>
<linearGradient id="paint4_linear_178_3021" x1="9.45072" y1="27.7397" x2="4.48303" y2="32.9623" gradientUnits="userSpaceOnUse">
<stop stop-color="#7BC2BF"/>
<stop offset="1" stop-color="#368BB3"/>
</linearGradient>
<linearGradient id="paint5_linear_178_3021" x1="30.1865" y1="27.7397" x2="25.2187" y2="32.9624" gradientUnits="userSpaceOnUse">
<stop stop-color="#7BC2BF"/>
<stop offset="1" stop-color="#368BB3"/>
</linearGradient>
<linearGradient id="paint6_linear_178_3021" x1="26.152" y1="-0.285376" x2="-2.61146" y2="37.514" gradientUnits="userSpaceOnUse">
<stop stop-color="#7BC2BF"/>
<stop offset="1" stop-color="#368BB3"/>
</linearGradient>
<clipPath id="clip0_178_3021">
<rect width="36.8634" height="36.8634" fill="white" transform="translate(0.412491 0.398235)"/>
</clipPath>
</defs>
</svg>
