<svg width="19" height="22" viewBox="0 0 19 22" fill="none" xmlns="http://www.w3.org/2000/svg">
<path d="M11.5 1.26953V5.40007C11.5 5.96012 11.5 6.24015 11.609 6.45406C11.7049 6.64222 11.8578 6.7952 12.046 6.89108C12.2599 7.00007 12.5399 7.00007 13.1 7.00007H17.2305M13.5 12H5.5M13.5 16H5.5M7.5 8H5.5M11.5 1H6.3C4.61984 1 3.77976 1 3.13803 1.32698C2.57354 1.6146 2.1146 2.07354 1.82698 2.63803C1.5 3.27976 1.5 4.11984 1.5 5.8V16.2C1.5 17.8802 1.5 18.7202 1.82698 19.362C2.1146 19.9265 2.57354 20.3854 3.13803 20.673C3.77976 21 4.61984 21 6.3 21H12.7C14.3802 21 15.2202 21 15.862 20.673C16.4265 20.3854 16.8854 19.9265 17.173 19.362C17.5 18.7202 17.5 17.8802 17.5 16.2V7L11.5 1Z" stroke="#A6A6A6" stroke-width="2" stroke-linecap="round" stroke-linejoin="round"/>
</svg>
