<svg width="170" height="176" viewBox="0 0 170 176" fill="none" xmlns="http://www.w3.org/2000/svg">
<g filter="url(#filter0_d_344_732)">
<path d="M52.15 22.4C52.15 17.7332 55.9331 13.95 60.6 13.95H102.2C102.515 13.95 102.817 14.0752 103.04 14.2981L131.102 42.3596C131.325 42.5825 131.45 42.8848 131.45 43.2V105.6C131.45 110.267 127.667 114.05 123 114.05H60.6C55.9332 114.05 52.15 110.267 52.15 105.6V22.4Z" fill="white" stroke="#D0D5DD" stroke-width="3.9"/>
<path d="M102.2 13.3V32.8C102.2 38.5438 106.856 43.2 112.6 43.2H132.1" stroke="#D0D5DD" stroke-width="3.9"/>
<rect x="35.1001" y="58.8" width="66.6" height="41.4" rx="5.2" fill="#D92D20"/>
<path d="M44.5641 89V70.0909H52.0243C53.4585 70.0909 54.6804 70.3648 55.6898 70.9126C56.6993 71.4543 57.4687 72.2083 57.9981 73.1747C58.5336 74.1349 58.8013 75.2429 58.8013 76.4986C58.8013 77.7543 58.5305 78.8622 57.9888 79.8224C57.4472 80.7827 56.6624 81.5305 55.6344 82.0661C54.6127 82.6016 53.3754 82.8693 51.9228 82.8693H47.1678V79.6655H51.2765C52.0459 79.6655 52.6799 79.5331 53.1785 79.2685C53.6832 78.9976 54.0587 78.6252 54.3049 78.1513C54.5573 77.6712 54.6834 77.1203 54.6834 76.4986C54.6834 75.8707 54.5573 75.3229 54.3049 74.8551C54.0587 74.3812 53.6832 74.0149 53.1785 73.7564C52.6737 73.4917 52.0336 73.3594 51.258 73.3594H48.562V89H44.5641ZM68.1012 89H61.3981V70.0909H68.1566C70.0586 70.0909 71.6959 70.4695 73.0686 71.2266C74.4412 71.9775 75.4968 73.0578 76.2355 74.4673C76.9803 75.8769 77.3527 77.5634 77.3527 79.527C77.3527 81.4967 76.9803 83.1894 76.2355 84.6051C75.4968 86.0208 74.435 87.1072 73.0501 87.8643C71.6713 88.6214 70.0217 89 68.1012 89ZM65.396 85.5746H67.935C69.1169 85.5746 70.1109 85.3653 70.9173 84.9467C71.7298 84.522 72.3392 83.8665 72.7454 82.9801C73.1578 82.0876 73.364 80.9366 73.364 79.527C73.364 78.1297 73.1578 76.9879 72.7454 76.1016C72.3392 75.2152 71.7329 74.5627 70.9265 74.1442C70.1202 73.7256 69.1261 73.5163 67.9443 73.5163H65.396V85.5746ZM80.3141 89V70.0909H92.834V73.3871H84.312V77.8928H92.003V81.1889H84.312V89H80.3141Z" fill="white"/>
</g>
<defs>
<filter id="filter0_d_344_732" x="-4" y="0" width="176" height="176" filterUnits="userSpaceOnUse" color-interpolation-filters="sRGB">
<feFlood flood-opacity="0" result="BackgroundImageFix"/>
<feColorMatrix in="SourceAlpha" type="matrix" values="0 0 0 0 0 0 0 0 0 0 0 0 0 0 0 0 0 0 127 0" result="hardAlpha"/>
<feMorphology radius="12" operator="erode" in="SourceAlpha" result="effect1_dropShadow_344_732"/>
<feOffset dy="24"/>
<feGaussianBlur stdDeviation="24"/>
<feColorMatrix type="matrix" values="0 0 0 0 0.0625882 0 0 0 0 0.0926346 0 0 0 0 0.15702 0 0 0 0.18 0"/>
<feBlend mode="normal" in2="BackgroundImageFix" result="effect1_dropShadow_344_732"/>
<feBlend mode="normal" in="SourceGraphic" in2="effect1_dropShadow_344_732" result="shape"/>
</filter>
</defs>
</svg>
