<svg width="41" height="40" viewBox="0 0 41 40" fill="none" xmlns="http://www.w3.org/2000/svg">
<path d="M20.7658 18.0598C20.5997 18.0432 20.4003 18.0432 20.2176 18.0598C16.2634 17.9269 13.1233 14.6871 13.1233 10.6996C13.1233 6.62912 16.4129 3.32288 20.5 3.32288C24.5705 3.32288 27.8768 6.62912 27.8768 10.6996C27.8602 14.6871 24.72 17.9269 20.7658 18.0598Z" stroke="white" stroke-width="2.80366" stroke-linecap="round" stroke-linejoin="round"/>
<path d="M12.4587 24.1905C8.43801 26.882 8.43801 31.2682 12.4587 33.9431C17.0276 37.0001 24.5207 37.0001 29.0896 33.9431C33.1103 31.2516 33.1103 26.8654 29.0896 24.1905C24.5373 21.1501 17.0442 21.1501 12.4587 24.1905Z" stroke="white" stroke-width="2.80366" stroke-linecap="round" stroke-linejoin="round"/>
</svg>
