<svg width="41" height="41" viewBox="0 0 41 41" fill="none" xmlns="http://www.w3.org/2000/svg">
<g clip-path="url(#clip0_333_8367)">
<path d="M5.27102 13.5883C5.12578 13.4429 4.92422 13.3594 4.71875 13.3594C4.51328 13.3594 4.3118 13.443 4.16641 13.5883C4.02102 13.7336 3.9375 13.9352 3.9375 14.1406C3.9375 14.3461 4.02102 14.5477 4.16641 14.6929C4.31172 14.8383 4.51328 14.9219 4.71875 14.9219C4.92422 14.9219 5.12578 14.8383 5.27102 14.6929C5.41641 14.5477 5.5 14.3461 5.5 14.1406C5.5 13.9352 5.41641 13.7336 5.27102 13.5883ZM34.7188 0.3125H18.9115C18.4801 0.3125 18.1302 0.662344 18.1302 1.09375C18.1302 1.52516 18.4801 1.875 18.9115 1.875H34.7188C35.1495 1.875 35.5 2.22547 35.5 2.65625V37.9688C35.5 38.3995 35.1495 38.75 34.7188 38.75H6.28125C5.85047 38.75 5.5 38.3995 5.5 37.9688V17.0573C5.5 16.6259 5.15016 16.276 4.71875 16.276C4.28734 16.276 3.9375 16.6259 3.9375 17.0573V37.9688C3.9375 39.2611 4.98891 40.3125 6.28125 40.3125H34.7188C36.0111 40.3125 37.0625 39.2611 37.0625 37.9688V2.65625C37.0625 1.36391 36.0111 0.3125 34.7188 0.3125Z" fill="white"/>
<path d="M20.5 3.4375C19.9684 3.4375 19.4342 3.47812 18.9122 3.55812C18.4857 3.62359 18.193 4.02227 18.2584 4.44875C18.3238 4.87523 18.7227 5.16758 19.149 5.10258C19.5961 5.03425 20.0477 4.99995 20.5 5C25.3679 5 29.3282 8.96031 29.3282 13.8282C29.3282 15.9899 28.5468 17.9722 27.2521 19.5087C26.6792 18.5235 25.8967 17.6737 24.947 17.0146C24.3978 16.6334 23.8018 16.3245 23.1737 16.0956C23.8852 15.4001 24.3281 14.4308 24.3281 13.3595V12.5978C24.3281 10.4869 22.6109 8.76961 20.5 8.76961C18.3892 8.76961 16.6719 10.4869 16.6719 12.5978V13.3595C16.6719 14.4308 17.1147 15.4001 17.8263 16.0956C17.1982 16.3245 16.6022 16.6334 16.0531 17.0146C15.0988 17.677 14.3131 18.5315 13.7395 19.5226C12.7531 18.3503 12.0635 16.9084 11.7938 15.2999C11.7224 14.8745 11.3192 14.5875 10.8941 14.6587C10.4685 14.73 10.1814 15.1328 10.2527 15.5584C10.6545 17.9537 11.898 20.1462 13.7543 21.7319C15.6317 23.3357 18.0274 24.219 20.4999 24.219C26.2294 24.219 30.8906 19.5577 30.8906 13.8283C30.8906 8.09883 26.2295 3.4375 20.5 3.4375ZM18.2344 12.5977C18.2344 11.3484 19.2508 10.332 20.5 10.332C21.7492 10.332 22.7656 11.3484 22.7656 12.5977V13.3595C22.7656 14.6087 21.7492 15.6251 20.5 15.6251C19.2508 15.6251 18.2344 14.6087 18.2344 13.3595V12.5977ZM20.5 22.6564C18.3849 22.6564 16.4294 21.9178 14.8989 20.6656C15.948 18.5366 18.0926 17.1876 20.5 17.1876C22.9024 17.1876 25.043 18.531 26.0944 20.6523C24.5704 21.904 22.6214 22.6564 20.5 22.6564ZM27.7154 31.4064H16.6217C16.1902 31.4064 15.8404 31.7563 15.8404 32.1877C15.8404 32.6191 16.1902 32.9689 16.6217 32.9689H27.7154C28.1469 32.9689 28.4967 32.6191 28.4967 32.1877C28.4967 31.7563 28.1468 31.4064 27.7154 31.4064ZM13.8367 27.2602C13.6914 27.1148 13.4899 27.0312 13.2844 27.0312C13.0789 27.0312 12.8774 27.1148 12.732 27.2602C12.5867 27.4055 12.5031 27.607 12.5031 27.8125C12.5037 28.0196 12.586 28.218 12.732 28.3648C12.8774 28.5102 13.0789 28.5938 13.2844 28.5938C13.4899 28.5938 13.6914 28.5102 13.8367 28.3648C13.9828 28.2195 14.0656 28.018 14.0656 27.8125C14.0656 27.607 13.9828 27.4055 13.8367 27.2602ZM13.8367 31.6352C13.69 31.489 13.4915 31.4068 13.2844 31.4062C13.0789 31.4062 12.8774 31.4898 12.732 31.6352C12.5867 31.7805 12.5031 31.982 12.5031 32.1875C12.5037 32.3946 12.586 32.593 12.732 32.7398C12.8774 32.8852 13.0789 32.9688 13.2844 32.9688C13.4899 32.9688 13.6914 32.8852 13.8367 32.7398C13.9832 32.5933 14.0655 32.3946 14.0656 32.1875C14.0656 31.982 13.9828 31.7805 13.8367 31.6352ZM27.7154 27.0314H16.6217C16.1902 27.0314 15.8404 27.3813 15.8404 27.8127C15.8404 28.2441 16.1902 28.5939 16.6217 28.5939H27.7154C28.1469 28.5939 28.4967 28.2441 28.4967 27.8127C28.4967 27.3813 28.1468 27.0314 27.7154 27.0314ZM13.127 4.81477C12.8218 4.50977 12.3273 4.50977 12.0221 4.81477L9.4779 7.35898L8.60845 6.48953C8.30322 6.18453 7.80868 6.18453 7.50353 6.48953C7.19845 6.79469 7.19845 7.28938 7.50353 7.59445L8.9254 9.01633C8.99787 9.08898 9.08398 9.14659 9.17878 9.18586C9.27358 9.22513 9.37521 9.24528 9.47782 9.24516C9.67782 9.24516 9.87767 9.16883 10.0303 9.01641L13.127 5.91969C13.4321 5.61453 13.4321 5.11984 13.127 4.81477Z" fill="white"/>
<path d="M10.3438 0.3125C6.81133 0.3125 3.9375 3.18633 3.9375 6.71875C3.9375 10.2512 6.81133 13.125 10.3438 13.125C13.8762 13.125 16.75 10.2512 16.75 6.71875C16.75 3.18633 13.8762 0.3125 10.3438 0.3125ZM10.3438 11.5625C7.67289 11.5625 5.5 9.38961 5.5 6.71875C5.5 4.04789 7.67289 1.875 10.3438 1.875C13.0146 1.875 15.1875 4.04789 15.1875 6.71875C15.1875 9.38961 13.0146 11.5625 10.3438 11.5625Z" fill="white"/>
</g>
<defs>
<clipPath id="clip0_333_8367">
<rect width="40" height="40" fill="white" transform="translate(0.5 0.3125)"/>
</clipPath>
</defs>
</svg>
