<svg width="44" height="44" viewBox="0 0 44 44" fill="none" xmlns="http://www.w3.org/2000/svg">
<path d="M19.7231 9.96138C19.5739 10.0184 19.4534 10.1323 19.3882 10.2781C19.3229 10.4239 19.3182 10.5896 19.375 10.7388C19.8062 11.8706 19.9202 13.0987 19.7046 14.2905C19.4891 15.4824 18.9522 16.5927 18.1519 17.5018C17.5783 16.2071 16.5254 15.185 15.2142 14.6503C15.5232 14.3705 15.7703 14.0293 15.9397 13.6485C16.1092 13.2677 16.1972 12.8557 16.1983 12.4389C16.0718 8.45945 10.3026 8.46066 10.1761 12.4389C10.1771 12.8557 10.2652 13.2677 10.4346 13.6485C10.6041 14.0293 10.8512 14.3705 11.1601 14.6503C9.84941 15.1852 8.79679 16.2069 8.2231 17.5012C7.42303 16.5927 6.88608 15.4831 6.67012 14.292C6.45416 13.1009 6.56738 11.8734 6.99759 10.7419C8.59828 6.33362 14.6168 5.04247 17.8712 8.42934C17.9848 8.53904 18.1369 8.59974 18.2948 8.59837C18.4527 8.597 18.6038 8.53366 18.7154 8.422C18.8271 8.31035 18.8904 8.15931 18.8918 8.00141C18.8932 7.84351 18.8325 7.69138 18.7228 7.5778C17.9976 6.84175 17.1339 6.2565 16.1815 5.85579C15.229 5.45507 14.2067 5.24682 13.1735 5.24302C12.1402 5.23922 11.1164 5.43996 10.161 5.83367C9.20569 6.22737 8.33771 6.80626 7.60713 7.53696C6.87655 8.26766 6.2978 9.13573 5.90425 10.0911C5.51071 11.0465 5.31013 12.0704 5.3141 13.1037C5.31806 14.1369 5.52649 15.1592 5.92736 16.1116C6.32823 17.0639 6.91362 17.9275 7.64979 18.6526C13.7021 24.5224 23.4044 18.2172 20.5011 10.3089C20.4729 10.2349 20.4304 10.1673 20.376 10.1098C20.3216 10.0523 20.2564 10.0061 20.1841 9.97386C20.1118 9.94158 20.0339 9.92387 19.9548 9.92173C19.8757 9.91959 19.797 9.93307 19.7231 9.96138ZM11.3799 12.4389C11.3799 11.9598 11.5703 11.5002 11.9091 11.1614C12.2479 10.8226 12.7074 10.6323 13.1866 10.6323C13.6657 10.6323 14.1253 10.8226 14.4641 11.1614C14.8029 11.5002 14.9932 11.9598 14.9932 12.4389C14.9932 12.9181 14.8029 13.3776 14.4641 13.7164C14.1253 14.0552 13.6657 14.2456 13.1866 14.2456C12.7074 14.2456 12.2479 14.0552 11.9091 13.7164C11.5703 13.3776 11.3799 12.9181 11.3799 12.4389ZM9.18605 18.3888C9.46028 17.5437 9.99509 16.8072 10.7138 16.2848C11.4325 15.7625 12.2981 15.4811 13.1866 15.4811C14.0751 15.4811 14.9407 15.7625 15.6594 16.2848C16.3781 16.8072 16.9129 17.5437 17.1871 18.3888C16.0345 19.2579 14.6302 19.728 13.1866 19.728C11.743 19.728 10.3387 19.2579 9.18605 18.3888ZM37.8775 11.909V7.69343C37.8772 7.37409 37.7502 7.06792 37.5244 6.84212C37.2986 6.61631 36.9924 6.48931 36.6731 6.48899H23.6742L25.0551 7.86988C25.168 7.98279 25.2315 8.13594 25.2315 8.29565V15.5223C25.2319 15.8416 25.3589 16.1478 25.5847 16.3736C25.8105 16.5994 26.1166 16.7264 26.436 16.7267H36.6731C36.9924 16.7264 37.2986 16.5994 37.5244 16.3736C37.7502 16.1478 37.8772 15.8416 37.8775 15.5223V14.92C37.8775 14.7603 37.941 14.6072 38.0539 14.4942C38.1668 14.3813 38.32 14.3178 38.4797 14.3178C38.6395 14.3178 38.7926 14.3813 38.9056 14.4942C39.0185 14.6072 39.082 14.7603 39.082 14.92C39.253 16.4942 38.3382 17.901 36.6731 17.9311H26.436C25.7973 17.9305 25.185 17.6765 24.7334 17.2249C24.2817 16.7733 24.0277 16.1609 24.0271 15.5223V8.54497L21.7947 6.31254C21.7125 6.22757 21.6569 6.12043 21.6348 6.00429C21.6127 5.88815 21.625 5.76808 21.6703 5.65885C21.7155 5.54963 21.7917 5.45601 21.8894 5.38951C21.9872 5.32301 22.1022 5.28653 22.2205 5.28456H36.6731C37.3118 5.2852 37.9241 5.53919 38.3757 5.9908C38.8273 6.44242 39.0813 7.05475 39.082 7.69343V11.909C39.082 12.0687 39.0185 12.2219 38.9056 12.3348C38.7926 12.4477 38.6395 12.5112 38.4797 12.5112C38.32 12.5112 38.1668 12.4477 38.0539 12.3348C37.941 12.2219 37.8775 12.0687 37.8775 11.909ZM31.2531 23.3511C23.9024 23.3318 20.5469 32.8523 26.4233 37.2557C26.5488 37.2825 26.6796 37.2681 26.7963 37.2147C26.913 37.1614 27.0095 37.0718 27.0713 36.9594C27.2751 35.9966 27.7999 35.1316 28.5596 34.5061C29.3194 33.8805 30.2691 33.5316 31.2531 33.5165C32.1439 33.5225 33.01 33.8093 33.7282 34.3362C34.4464 34.8632 34.98 35.6033 35.2531 36.4511C34.4269 37.0795 33.4645 37.5045 32.4435 37.6918C31.4226 37.8791 30.372 37.8233 29.3766 37.5291C29.2238 37.4823 29.0587 37.4981 28.9176 37.5731C28.7765 37.648 28.6709 37.7759 28.6241 37.9287C28.5773 38.0815 28.5931 38.2466 28.6681 38.3877C28.743 38.5288 28.8709 38.6344 29.0237 38.6812C30.9115 39.2292 32.936 39.0523 34.7001 38.1852C36.4642 37.318 37.8408 35.823 38.5598 33.9935C40.5773 29.0192 36.6388 23.2463 31.2531 23.3511ZM29.4465 30.5054C29.4465 30.0263 29.6368 29.5668 29.9756 29.2279C30.3144 28.8891 30.774 28.6988 31.2531 28.6988C31.7323 28.6988 32.1918 28.8891 32.5306 29.2279C32.8694 29.5668 33.0598 30.0263 33.0598 30.5054C33.0598 30.9846 32.8694 31.4441 32.5306 31.7829C32.1918 32.1218 31.7323 32.3121 31.2531 32.3121C30.774 32.3121 30.3144 32.1218 29.9756 31.7829C29.6368 31.4441 29.4465 30.9846 29.4465 30.5054ZM37.4361 33.5605C37.1524 34.2955 36.7387 34.9733 36.2148 35.5617C35.6406 34.2701 34.589 33.2506 33.2802 32.7168C33.7275 32.3081 34.0408 31.7737 34.179 31.1838C34.3172 30.5939 34.2738 29.976 34.0546 29.4112C33.8354 28.8463 33.4506 28.361 32.9507 28.0187C32.4507 27.6764 31.859 27.4933 31.2531 27.4933C30.6472 27.4933 30.0555 27.6764 29.5556 28.0187C29.0556 28.361 28.6708 28.8463 28.4516 29.4112C28.2324 29.976 28.1891 30.5939 28.3273 31.1838C28.4655 31.7737 28.7788 32.3081 29.2261 32.7168C27.9184 33.2505 26.8676 34.2689 26.2933 35.5593C25.4478 34.6047 24.8961 33.4262 24.7046 32.1655C24.5132 30.9048 24.6901 29.6157 25.2141 28.4532C25.7381 27.2906 26.5868 26.3043 27.6582 25.6128C28.7296 24.9214 29.978 24.5542 31.2531 24.5555C32.3256 24.5635 33.3803 24.8304 34.3275 25.3335C35.2747 25.8366 36.0864 26.5611 36.6934 27.4453C37.3005 28.3294 37.6851 29.3471 37.8144 30.4118C37.9437 31.4765 37.8139 32.5567 37.4361 33.5605ZM6.56218 29.9755V33.5888C6.56266 33.9081 6.68971 34.2142 6.91548 34.4399C7.14126 34.6657 7.44733 34.7928 7.76662 34.7932H20.7661L19.3852 33.4124C19.2723 33.2994 19.2088 33.1463 19.2088 32.9866V25.76C19.2083 25.4407 19.0812 25.1346 18.8555 24.9088C18.6297 24.6831 18.3236 24.556 18.0043 24.5555H7.76662C7.44733 24.556 7.14126 24.6831 6.91548 24.9088C6.68971 25.1346 6.56266 25.4407 6.56218 25.76V26.9644C6.56218 27.1241 6.49874 27.2773 6.3858 27.3902C6.27286 27.5032 6.11968 27.5666 5.95997 27.5666C5.80025 27.5666 5.64707 27.5032 5.53413 27.3902C5.4212 27.2773 5.35775 27.1241 5.35775 26.9644V25.76C5.35839 25.1213 5.61238 24.509 6.06399 24.0573C6.51561 23.6057 7.12794 23.3517 7.76662 23.3511H18.0043C18.643 23.3517 19.2553 23.6057 19.707 24.0573C20.1586 24.509 20.4126 25.1213 20.4132 25.76V32.7373L22.6456 34.9697C22.7278 35.0546 22.7833 35.1617 22.8055 35.2778C22.8276 35.3939 22.8153 35.5139 22.7702 35.6231C22.725 35.7323 22.6489 35.8259 22.5512 35.8925C22.4536 35.959 22.3386 35.9956 22.2205 35.9977H7.76722C7.12855 35.997 6.51621 35.743 6.0646 35.2914C5.61298 34.8398 5.35899 34.2275 5.35835 33.5888V29.9755C5.35835 29.8158 5.4218 29.6626 5.53474 29.5497C5.64767 29.4367 5.80085 29.3733 5.96057 29.3733C6.12029 29.3733 6.27346 29.4367 6.3864 29.5497C6.49934 29.6626 6.56218 29.8158 6.56218 29.9755Z" fill="url(#paint0_linear_178_3048)"/>
<defs>
<linearGradient id="paint0_linear_178_3048" x1="5.35835" y1="22.1515" x2="39.1024" y2="22.1515" gradientUnits="userSpaceOnUse">
<stop stop-color="#388DB5"/>
<stop offset="1" stop-color="#7DC5BF"/>
</linearGradient>
</defs>
</svg>
