<svg width="17" height="16" viewBox="0 0 17 16" fill="none" xmlns="http://www.w3.org/2000/svg">
<g clip-path="url(#clip0_2027_237)">
<path d="M16.2414 0.58075C16.234 0.52325 16.2214 0.467917 16.2004 0.416C16.1997 0.41475 16.1997 0.412917 16.1994 0.411292C16.1994 0.410958 16.199 0.410625 16.1987 0.410333C16.1756 0.355625 16.144 0.306 16.1084 0.259917C16.0996 0.249042 16.091 0.23825 16.0817 0.228042C16.0436 0.185042 16.0023 0.145333 15.9543 0.112958C15.953 0.111958 15.9513 0.111667 15.95 0.110667C15.9036 0.0800833 15.8524 0.0569583 15.7987 0.03875C15.7853 0.034 15.7723 0.0299583 15.7586 0.026375C15.7023 0.0110833 15.6444 0 15.5833 0H10.9167C10.5487 0 10.25 0.298667 10.25 0.666667C10.25 1.03467 10.5487 1.33333 10.9167 1.33333H13.9736L9.99463 5.31233C8.93358 4.46375 7.62729 4 6.25 4C2.94175 4 0.25 6.69175 0.25 10C0.25 13.3083 2.94175 16 6.25 16C9.55825 16 12.25 13.3083 12.25 10C12.25 8.62333 11.7866 7.31738 10.9373 6.25537L14.9167 2.27604V5.33333C14.9167 5.70133 15.2153 6 15.5833 6C15.9513 6 16.25 5.70133 16.25 5.33333V0.666667C16.25 0.652667 16.2468 0.639333 16.2459 0.625667C16.2449 0.610634 16.2434 0.595681 16.2414 0.58075ZM6.25 14.6667C3.67658 14.6667 1.58333 12.5734 1.58333 10C1.58333 7.42658 3.67658 5.33333 6.25 5.33333C7.49592 5.33333 8.66896 5.81833 9.55096 6.69725C10.4316 7.58104 10.9167 8.75408 10.9167 10C10.9167 12.5734 8.82342 14.6667 6.25 14.6667Z" fill="#123D50"/>
</g>
<defs>
<clipPath id="clip0_2027_237">
<rect width="16" height="16" fill="white" transform="translate(0.25)"/>
</clipPath>
</defs>
</svg>
