<svg width="38" height="38" viewBox="0 0 38 38" fill="none" xmlns="http://www.w3.org/2000/svg">
<path fill-rule="evenodd" clip-rule="evenodd" d="M13.0625 33.2497C13.0625 32.4623 12.7497 31.7072 12.193 31.1504C11.6362 30.5937 10.8811 30.2809 10.0938 30.2809H6.53127C5.7439 30.2809 4.9888 30.5937 4.43205 31.1504C3.8753 31.7072 3.56252 32.4623 3.56252 33.2497V35.0309C3.56252 35.1884 3.62508 35.3394 3.73643 35.4508C3.84778 35.5621 3.99879 35.6247 4.15627 35.6247H12.4688C12.6262 35.6247 12.7773 35.5621 12.8886 35.4508C13 35.3394 13.0625 35.1884 13.0625 35.0309V33.2497ZM34.4375 33.2497C34.4375 32.4623 34.1247 31.7072 33.568 31.1504C33.0112 30.5937 32.2561 30.2809 31.4688 30.2809H27.9063C27.1189 30.2809 26.3638 30.5937 25.807 31.1504C25.2503 31.7072 24.9375 32.4623 24.9375 33.2497V35.0309C24.9375 35.1884 25.0001 35.3394 25.1114 35.4508C25.2228 35.5621 25.3738 35.6247 25.5313 35.6247H33.8438C34.0012 35.6247 34.1523 35.5621 34.2636 35.4508C34.375 35.3394 34.4375 35.1884 34.4375 35.0309V33.2497ZM23.75 33.2497C23.75 32.4623 23.4372 31.7072 22.8805 31.1504C22.3237 30.5937 21.5686 30.2809 20.7813 30.2809H17.2188C16.4314 30.2809 15.6763 30.5937 15.1195 31.1504C14.5628 31.7072 14.25 32.4623 14.25 33.2497V35.0309C14.25 35.1884 14.3126 35.3394 14.4239 35.4508C14.5353 35.5621 14.6863 35.6247 14.8438 35.6247H23.1563C23.3137 35.6247 23.4648 35.5621 23.5761 35.4508C23.6875 35.3394 23.75 35.1884 23.75 35.0309V33.2497ZM11.875 33.2497V34.4372H4.75002V33.2497C4.75002 32.7772 4.93769 32.3242 5.27174 31.9901C5.60579 31.6561 6.05885 31.4684 6.53127 31.4684H10.0938C10.5662 31.4684 11.0192 31.6561 11.3533 31.9901C11.6873 32.3242 11.875 32.7772 11.875 33.2497ZM33.25 33.2497V34.4372H26.125V33.2497C26.125 32.7772 26.3127 32.3242 26.6467 31.9901C26.9808 31.6561 27.4338 31.4684 27.9063 31.4684H31.4688C31.9412 31.4684 32.3942 31.6561 32.7283 31.9901C33.0623 32.3242 33.25 32.7772 33.25 33.2497ZM22.5625 33.2497V34.4372H15.4375V33.2497C15.4375 32.7772 15.6252 32.3242 15.9592 31.9901C16.2933 31.6561 16.7463 31.4684 17.2188 31.4684H20.7813C21.2537 31.4684 21.7067 31.6561 22.0408 31.9901C22.3748 32.3242 22.5625 32.7772 22.5625 33.2497ZM11.2813 26.7754C11.3696 26.3364 11.3592 25.8833 11.251 25.4488C11.1428 25.0142 10.9395 24.6092 10.6556 24.2629C10.3718 23.9165 10.0146 23.6376 9.60975 23.4461C9.20494 23.2547 8.76268 23.1556 8.31489 23.1559H8.31014C7.86235 23.1556 7.42009 23.2547 7.01528 23.4461C6.61048 23.6376 6.25325 23.9165 5.96941 24.2629C5.68557 24.6092 5.48219 25.0142 5.37399 25.4488C5.26579 25.8833 5.25547 26.3364 5.34377 26.7754L5.66083 28.3607C5.76904 28.9024 6.06167 29.3897 6.48886 29.7399C6.91606 30.09 7.45143 30.2812 8.00377 30.2809H8.62126C9.76126 30.2809 10.741 29.477 10.9642 28.3607L11.2813 26.7754ZM32.6563 26.7754C32.7446 26.3364 32.7342 25.8833 32.626 25.4488C32.5178 25.0142 32.3145 24.6092 32.0306 24.2629C31.7468 23.9165 31.3896 23.6376 30.9847 23.4461C30.5799 23.2547 30.1377 23.1556 29.6899 23.1559H29.6851C29.2374 23.1556 28.7951 23.2547 28.3903 23.4461C27.9855 23.6376 27.6282 23.9165 27.3444 24.2629C27.0606 24.6092 26.8572 25.0142 26.749 25.4488C26.6408 25.8833 26.6305 26.3364 26.7188 26.7754L27.0358 28.3607C27.144 28.9024 27.4367 29.3897 27.8639 29.7399C28.2911 30.09 28.8264 30.2812 29.3788 30.2809H29.9963C31.1363 30.2809 32.116 29.477 32.3392 28.3607L32.6563 26.7754ZM21.9688 26.7754C22.0571 26.3364 22.0467 25.8833 21.9385 25.4488C21.8303 25.0142 21.627 24.6092 21.3431 24.2629C21.0593 23.9165 20.7021 23.6376 20.2972 23.4461C19.8924 23.2547 19.4502 23.1556 19.0024 23.1559H18.9976C18.5499 23.1556 18.1076 23.2547 17.7028 23.4461C17.298 23.6376 16.9407 23.9165 16.6569 24.2629C16.3731 24.6092 16.1697 25.0142 16.0615 25.4488C15.9533 25.8833 15.943 26.3364 16.0313 26.7754L16.3483 28.3607C16.4565 28.9024 16.7492 29.3897 17.1764 29.7399C17.6036 30.09 18.1389 30.2812 18.6913 30.2809H19.3088C20.4488 30.2809 21.4285 29.477 21.6517 28.3607L21.9688 26.7754ZM31.4925 26.5427L31.1755 28.1268C31.0626 28.6885 30.5698 29.0934 29.9975 29.0934H29.3788C28.8052 29.0934 28.3124 28.6885 28.1996 28.1268L27.8825 26.5427C27.8289 26.2759 27.8351 26.0006 27.9009 25.7365C27.9667 25.4725 28.0902 25.2264 28.2627 25.0159C28.4352 24.8055 28.6523 24.636 28.8983 24.5197C29.1443 24.4034 29.413 24.3432 29.6851 24.3434H29.6899C29.962 24.3432 30.2307 24.4034 30.4767 24.5197C30.7227 24.636 30.9398 24.8055 31.1123 25.0159C31.2848 25.2264 31.4084 25.4725 31.4741 25.7365C31.5399 26.0006 31.5462 26.2759 31.4925 26.5427ZM10.1175 26.5427L9.80046 28.1268C9.68765 28.6885 9.19483 29.0934 8.62245 29.0934H8.00377C7.43021 29.0934 6.93738 28.6885 6.82457 28.1268L6.50751 26.5427C6.45386 26.2759 6.46015 26.0006 6.5259 25.7365C6.59166 25.4725 6.71525 25.2264 6.88774 25.0159C7.06022 24.8055 7.27732 24.636 7.52331 24.5197C7.7693 24.4034 8.03804 24.3432 8.31014 24.3434H8.31489C8.58699 24.3432 8.85573 24.4034 9.10172 24.5197C9.34771 24.636 9.56481 24.8055 9.73729 25.0159C9.90978 25.2264 10.0334 25.4725 10.0991 25.7365C10.1649 26.0006 10.1712 26.2759 10.1175 26.5427ZM20.805 26.5427L20.488 28.1268C20.3751 28.6885 19.8823 29.0934 19.31 29.0934H18.6913C18.1177 29.0934 17.6249 28.6885 17.5121 28.1268L17.195 26.5427C17.1414 26.2759 17.1476 26.0006 17.2134 25.7365C17.2792 25.4725 17.4027 25.2264 17.5752 25.0159C17.7477 24.8055 17.9648 24.636 18.2108 24.5197C18.4568 24.4034 18.7255 24.3432 18.9976 24.3434H19.0024C19.2745 24.3432 19.5432 24.4034 19.7892 24.5197C20.0352 24.636 20.2523 24.8055 20.4248 25.0159C20.5973 25.2264 20.7209 25.4725 20.7866 25.7365C20.8524 26.0006 20.8587 26.2759 20.805 26.5427ZM16.0241 17.5141V19.578C16.0241 20.0043 16.213 20.4057 16.5609 20.7251C16.9777 21.1087 17.6451 21.3747 18.4039 21.3747H19.5961C20.355 21.3747 21.0223 21.1087 21.4391 20.7251C21.7871 20.4057 21.9759 20.0043 21.9759 19.578V17.5141C22.5519 17.0499 23.0161 16.4621 23.3343 15.7943C23.6525 15.1265 23.8165 14.3957 23.8141 13.6559C23.8141 10.9425 21.6529 8.7456 19 8.7456C16.3471 8.7456 14.1859 10.9425 14.1859 13.6559C14.1859 15.2222 14.9055 16.6152 16.0241 17.5141ZM7.65584 16.9524C7.65584 16.9524 7.49314 16.6247 7.11789 16.6247H6.53127C6.05914 16.6237 5.60662 16.4358 5.27277 16.1019C4.93893 15.7681 4.75096 15.3155 4.75002 14.8434V5.34341C4.75002 4.871 4.93769 4.41793 5.27174 4.08388C5.60579 3.74983 6.05885 3.56216 6.53127 3.56216H31.4688C31.9412 3.56216 32.3942 3.74983 32.7283 4.08388C33.0623 4.41793 33.25 4.871 33.25 5.34341V14.8434C33.2491 15.3155 33.0611 15.7681 32.7273 16.1019C32.3934 16.4358 31.9409 16.6237 31.4688 16.6247H30.8821C30.5544 16.6247 30.2908 17.0605 30.3442 16.9524L29.0201 19.6005L27.2128 16.8895C27.1585 16.8081 27.0851 16.7414 26.9989 16.6952C26.9127 16.6491 26.8165 16.6248 26.7188 16.6247H24.9375C24.78 16.6247 24.629 16.6872 24.5177 16.7986C24.4063 16.9099 24.3438 17.0609 24.3438 17.2184C24.3438 17.3759 24.4063 17.5269 24.5177 17.6383C24.629 17.7496 24.78 17.8122 24.9375 17.8122H26.4005L28.5998 21.1099C28.6572 21.1967 28.7364 21.2668 28.8296 21.3133C28.9227 21.3597 29.0265 21.3808 29.1303 21.3744C29.2342 21.3681 29.3346 21.3344 29.4214 21.2769C29.5081 21.2194 29.5782 21.1401 29.6246 21.0469L31.242 17.8122H31.4688C32.2561 17.8122 33.0112 17.4994 33.568 16.9426C34.1247 16.3859 34.4375 15.6308 34.4375 14.8434V5.34341C34.4375 4.55605 34.1247 3.80094 33.568 3.24419C33.0112 2.68744 32.2561 2.37466 31.4688 2.37466H6.53127C5.7439 2.37466 4.9888 2.68744 4.43205 3.24419C3.8753 3.80094 3.56252 4.55605 3.56252 5.34341V14.8434C3.56252 15.6308 3.8753 16.3859 4.43205 16.9426C4.9888 17.4994 5.7439 17.8122 6.53127 17.8122H6.75807L8.37545 21.0469C8.4218 21.1401 8.4919 21.2194 8.57866 21.2769C8.66542 21.3344 8.76579 21.3681 8.86968 21.3744C8.97357 21.3808 9.07731 21.3597 9.17045 21.3133C9.2636 21.2668 9.34285 21.1967 9.40027 21.1099L11.5995 17.8122H13.0625C13.22 17.8122 13.371 17.7496 13.4824 17.6383C13.5937 17.5269 13.6563 17.3759 13.6563 17.2184C13.6563 17.0609 13.5937 16.9099 13.4824 16.7986C13.371 16.6872 13.22 16.6247 13.0625 16.6247H11.2813C11.1835 16.6248 11.0873 16.6491 11.0011 16.6952C10.915 16.7414 10.8415 16.8081 10.7873 16.8895L8.97989 19.6005L7.65584 16.9524ZM20.7884 18.2147C20.235 18.4415 19.6318 18.5662 19 18.5662C18.3683 18.5662 17.765 18.4415 17.2116 18.2147V19.578C17.2116 19.7252 17.3292 19.8392 17.4729 19.9354C17.7104 20.0957 18.0417 20.1872 18.4039 20.1872H19.5961C19.9583 20.1872 20.2896 20.0957 20.5271 19.9354C20.6708 19.8392 20.7884 19.7252 20.7884 19.578V18.2147ZM19 9.9331C21.0057 9.9331 22.6266 11.6051 22.6266 13.6559C22.6266 15.7067 21.0057 17.3787 19 17.3787C16.9943 17.3787 15.3734 15.7067 15.3734 13.6559C15.3734 11.6051 16.9943 9.9331 19 9.9331ZM24.6775 10.9864L26.4753 9.99723C26.545 9.96042 26.6067 9.9101 26.6568 9.8492C26.7069 9.7883 26.7443 9.71804 26.7669 9.64252C26.7896 9.567 26.7969 9.48772 26.7886 9.40933C26.7802 9.33093 26.7564 9.25498 26.7183 9.18591C26.6803 9.11684 26.629 9.05603 26.5672 9.00702C26.5055 8.95802 26.4346 8.92181 26.3587 8.9005C26.2827 8.87919 26.2034 8.87321 26.1251 8.8829C26.0469 8.8926 25.9714 8.91778 25.903 8.95698L24.1063 9.94498C23.9682 10.0207 23.8658 10.1482 23.8217 10.2994C23.7776 10.4506 23.7954 10.6132 23.8711 10.7513C23.9469 10.8894 24.0744 10.9917 24.2256 11.0358C24.3768 11.0799 24.5394 11.0622 24.6775 10.9864ZM13.8938 9.94498L12.0971 8.95698C12.0287 8.91778 11.9531 8.8926 11.8749 8.8829C11.7967 8.87321 11.7173 8.87919 11.6414 8.9005C11.5655 8.92181 11.4946 8.95802 11.4328 9.00702C11.3711 9.05603 11.3197 9.11684 11.2817 9.18591C11.2437 9.25498 11.2198 9.33093 11.2115 9.40933C11.2031 9.48772 11.2105 9.567 11.2331 9.64252C11.2557 9.71804 11.2932 9.7883 11.3432 9.8492C11.3933 9.9101 11.455 9.96042 11.5247 9.99723L13.3226 10.9864C13.4607 11.0622 13.6232 11.0799 13.7744 11.0358C13.9256 10.9917 14.0531 10.8894 14.1289 10.7513C14.2046 10.6132 14.2224 10.4506 14.1783 10.2994C14.1342 10.1482 14.0319 10.0207 13.8938 9.94498ZM16.3661 7.78373L15.2831 5.94072C15.2033 5.80498 15.0728 5.70652 14.9204 5.66699C14.7679 5.62746 14.606 5.65011 14.4703 5.72995C14.3346 5.80978 14.2361 5.94028 14.1966 6.09271C14.157 6.24515 14.1797 6.40705 14.2595 6.54279L15.3425 8.38579C15.382 8.453 15.4344 8.51177 15.4967 8.55874C15.5589 8.60571 15.6298 8.63995 15.7053 8.65952C15.7808 8.67909 15.8594 8.68361 15.9366 8.67281C16.0138 8.66201 16.0882 8.63611 16.1554 8.59657C16.2226 8.55704 16.2813 8.50465 16.3283 8.44241C16.3753 8.38017 16.4095 8.30928 16.4291 8.23381C16.4487 8.15833 16.4532 8.07973 16.4424 8.00251C16.4316 7.92528 16.4057 7.85094 16.3661 7.78373ZM22.6575 8.38579L23.7405 6.54279C23.8204 6.40705 23.843 6.24515 23.8035 6.09271C23.7639 5.94028 23.6655 5.80978 23.5297 5.72995C23.4625 5.69041 23.3882 5.66451 23.311 5.65371C23.2337 5.64291 23.1551 5.64742 23.0797 5.66699C22.9272 5.70652 22.7967 5.80498 22.7169 5.94072L21.6339 7.78373C21.5944 7.85094 21.5684 7.92528 21.5576 8.00251C21.5468 8.07973 21.5514 8.15833 21.5709 8.23381C21.5905 8.30928 21.6248 8.38017 21.6717 8.44241C21.7187 8.50465 21.7775 8.55704 21.8447 8.59657C21.9119 8.63611 21.9862 8.66201 22.0634 8.67281C22.1407 8.68361 22.2193 8.67909 22.2947 8.65952C22.3702 8.63995 22.4411 8.60571 22.5034 8.55874C22.5656 8.51177 22.618 8.453 22.6575 8.38579ZM19.5938 7.14129V5.34341C19.5938 5.18594 19.5312 5.03492 19.4199 4.92357C19.3085 4.81222 19.1575 4.74966 19 4.74966C18.8425 4.74966 18.6915 4.81222 18.5802 4.92357C18.4688 5.03492 18.4063 5.18594 18.4063 5.34341V7.14129C18.4063 7.29876 18.4688 7.44978 18.5802 7.56113C18.6915 7.67248 18.8425 7.73504 19 7.73504C19.1575 7.73504 19.3085 7.67248 19.4199 7.56113C19.5312 7.44978 19.5938 7.29876 19.5938 7.14129Z" fill="url(#paint0_linear_178_3002)"/>
<defs>
<linearGradient id="paint0_linear_178_3002" x1="2.34177" y1="18.4059" x2="35.625" y2="18.4059" gradientUnits="userSpaceOnUse">
<stop stop-color="#358AB3"/>
<stop offset="1" stop-color="#7CC2C0"/>
</linearGradient>
</defs>
</svg>
