<svg width="45" height="45" viewBox="0 0 45 45" fill="none" xmlns="http://www.w3.org/2000/svg">
<g clip-path="url(#clip0_178_2968)">
<path d="M16.0392 21.5313C16.9797 22.9335 18.1897 24.1345 19.5989 25.0643C19.6341 25.0938 19.6724 25.1193 19.7133 25.1402C22.3957 26.8694 25.6263 27.5366 28.7743 27.0115C28.8182 27.0092 28.8617 27.002 28.904 26.9903C31.6011 26.5105 34.0728 25.1772 35.9552 23.187C37.8376 21.1967 39.0311 18.6546 39.3601 15.935C39.3705 15.8498 39.3626 15.7633 39.3371 15.6813C39.3116 15.5993 39.2689 15.5236 39.212 15.4593C39.155 15.395 39.0851 15.3436 39.0068 15.3083C38.9284 15.2731 38.8435 15.2549 38.7577 15.2549H27.2648L27.2655 13.6552C29.5108 13.032 30.8707 11.5483 31.3102 9.2385C31.3286 9.14135 31.3231 9.04116 31.294 8.94664C31.2649 8.85212 31.2132 8.76614 31.1433 8.69619C31.0734 8.62623 30.9875 8.57442 30.893 8.54525C30.7985 8.51609 30.6983 8.51046 30.6011 8.52886C29.1689 8.79976 28.055 9.42519 27.2665 10.3953V9.42C28.9833 8.90984 30.0274 7.74658 30.3688 5.95116C30.3872 5.85407 30.3817 5.75394 30.3526 5.65948C30.3235 5.56502 30.2718 5.47909 30.202 5.40915C30.1322 5.33921 30.0463 5.28739 29.9519 5.25817C29.8575 5.22896 29.7574 5.22324 29.6603 5.24152C28.3075 5.49643 27.2934 6.18013 26.6629 7.2455C26.0381 6.1739 25.0342 5.50092 23.6596 5.24161C23.5625 5.2232 23.4623 5.22879 23.3679 5.25791C23.2734 5.28703 23.1875 5.33879 23.1176 5.40868C23.0477 5.47857 22.9959 5.56448 22.9668 5.65894C22.9377 5.75339 22.9321 5.85353 22.9505 5.95064C23.2894 7.7465 24.3335 8.91036 26.0526 9.42017V10.3966C25.2638 9.42588 24.1503 8.80011 22.7191 8.52886C22.6219 8.51047 22.5218 8.51608 22.4274 8.54521C22.3329 8.57434 22.247 8.62609 22.1771 8.69598C22.1072 8.76587 22.0555 8.85177 22.0264 8.94621C21.9972 9.04066 21.9916 9.14079 22.01 9.2379C22.4469 11.5472 23.8058 13.0306 26.0515 13.6543L26.0509 15.2549H14.5579C14.4721 15.2549 14.3872 15.2731 14.309 15.3083C14.2307 15.3435 14.1608 15.3949 14.1038 15.4592C14.0469 15.5234 14.0042 15.599 13.9786 15.6809C13.9531 15.7628 13.9451 15.8493 13.9554 15.9345C14.1945 17.9394 14.9089 19.8582 16.0392 21.5313ZM28.8211 6.78852C28.5589 7.29553 28.1457 7.70859 27.6386 7.97062C27.9002 7.46317 28.3136 7.0499 28.8211 6.78835V6.78852ZM24.4977 6.78852C25.005 7.05034 25.4183 7.46345 25.6803 7.97062C25.1731 7.70872 24.7599 7.29555 24.498 6.78835L24.4977 6.78852ZM23.4834 10.0026C24.555 10.4253 25.3064 11.1767 25.7549 12.274C24.6573 11.8251 23.9061 11.0738 23.4834 10.0026ZM17.6265 21.6433C18.5085 20.6984 18.7739 19.5051 19.0116 18.4358C19.1639 17.7502 19.3078 17.1027 19.595 16.6287C19.6276 16.5748 19.6584 16.5216 19.6884 16.4689H26.2627C26.3168 16.5012 26.3723 16.5334 26.4295 16.5664C26.7939 16.7772 27.1708 16.995 27.3219 17.364C27.497 17.7927 27.3479 18.0077 26.8398 18.5612C26.3159 19.1324 25.5241 19.9957 26.1468 21.3864C26.1883 21.4958 26.1927 21.7578 26.171 21.9884C25.8949 21.8077 25.4837 21.5246 25.1549 21.2982C24.3957 20.7755 23.9179 20.4494 23.6862 20.3311C23.1234 20.0435 22.5766 19.9973 22.0606 20.1943C20.8924 20.6407 20.2576 22.2303 19.7044 23.6628C18.9297 23.0797 18.2315 22.4011 17.6265 21.6433ZM24.429 25.7599C23.1275 25.5063 21.8792 25.0312 20.7384 24.3554L20.8007 24.1944C21.2244 23.0958 21.805 21.5911 22.4943 21.3278C22.6113 21.2831 22.8047 21.2432 23.1342 21.4117C23.3122 21.5025 23.9525 21.9433 24.4669 22.2976C24.8069 22.5316 25.1587 22.7737 25.4275 22.9513C25.5912 23.0671 25.7634 23.1706 25.9424 23.261C26.0752 23.3619 26.2368 23.4179 26.4036 23.4208C26.5704 23.4237 26.7337 23.3733 26.8699 23.277C27.5085 22.8249 27.4705 21.3705 27.2561 20.8933C26.9702 20.2547 27.1961 19.9681 27.7345 19.3814C28.2375 18.833 28.9264 18.0819 28.4456 16.9043C28.3822 16.7503 28.3013 16.604 28.2043 16.4686H34.2702C33.6151 17.0409 32.9905 17.7149 32.7224 18.5324C32.1064 20.4121 31.5292 20.8152 30.7987 21.3262C30.1166 21.803 29.3435 22.3435 28.5401 23.9591C28.2312 24.579 28.1988 25.2417 28.1702 25.8268L28.1673 25.8839C26.9227 26.0451 25.6602 26.0032 24.429 25.7599ZM33.1174 24.0084C31.9832 24.7727 30.7225 25.3301 29.3939 25.6547C29.4177 25.2414 29.4609 24.8307 29.6257 24.4999C30.2915 23.161 30.8752 22.7533 31.4934 22.3209C32.2994 21.7575 33.1329 21.1748 33.875 18.9109C34.1436 18.0932 35.0496 17.3759 35.849 16.7431C35.9639 16.6522 36.0783 16.5607 36.1923 16.4686H38.0519C37.7749 17.9913 37.1956 19.4431 36.3481 20.7381C35.5005 22.0332 34.402 23.1452 33.1174 24.0084ZM29.8361 10.0026C29.4124 11.0741 28.661 11.8255 27.5645 12.274C28.0119 11.1762 28.7634 10.4248 29.8361 10.0026ZM18.3177 16.4686C18.0869 17.0047 17.9546 17.5959 17.8268 18.1726C17.6252 19.0798 17.4316 19.9461 16.8982 20.6273C16.0852 19.3619 15.5294 17.9488 15.2627 16.4686H18.3177ZM38.0812 25.4613C37.8187 25.3878 37.5441 25.3672 37.2735 25.4006C37.003 25.4339 36.7417 25.5206 36.5048 25.6557C36.4962 25.6608 36.487 25.6663 36.4783 25.672L28.4341 30.9089C28.0383 30.0858 27.2987 29.4909 26.3387 29.2414L18.6504 27.2413C17.3064 26.8943 16.0554 27.1746 14.7129 28.125L11.1859 30.6261L10.8291 30.0084C10.6511 29.6998 10.358 29.4744 10.014 29.3818C9.66995 29.2892 9.30327 29.3369 8.99442 29.5145L6.09333 31.1899C5.78519 31.3681 5.56028 31.6613 5.46789 32.0051C5.37551 32.3488 5.42318 32.7152 5.60047 33.0239L12.0406 44.179C12.1592 44.3831 12.3293 44.5524 12.5339 44.6701C12.7386 44.7877 12.9705 44.8495 13.2065 44.8492C13.4407 44.8493 13.6708 44.7876 13.8735 44.6703L16.7789 42.994C17.0863 42.8153 17.3106 42.5222 17.4026 42.1787C17.4947 41.8352 17.447 41.4693 17.27 41.1608L16.7659 40.288L17.9974 39.5767C18.2572 39.4197 18.5461 39.3169 18.8467 39.2746C19.1473 39.2324 19.4534 39.2514 19.7465 39.3307L22.8104 40.0999C24.4047 40.499 25.8195 40.2232 27.016 39.2804L38.31 30.3891C38.3213 30.3804 38.3323 30.3708 38.343 30.3612C38.4339 30.2784 38.5297 30.1959 38.6266 30.1124C39.3688 29.4725 40.611 28.4015 39.5999 26.6479C39.2696 26.0678 38.7239 25.6414 38.0812 25.4611V25.4613ZM16.171 41.9439L13.2668 43.6195C13.237 43.6358 13.202 43.6399 13.1692 43.6309C13.1364 43.6219 13.1084 43.6005 13.091 43.5713L6.65166 32.417C6.64343 32.4023 6.63819 32.3861 6.63624 32.3694C6.63428 32.3527 6.63564 32.3357 6.64024 32.3195C6.64422 32.3034 6.65139 32.2882 6.66134 32.2749C6.6713 32.2616 6.68382 32.2505 6.69818 32.2421L6.69982 32.2411L9.5997 30.5664C9.62959 30.5495 9.66495 30.545 9.69815 30.5538C9.73135 30.5627 9.75974 30.5842 9.77721 30.6138L10.4603 31.7968C10.4639 31.8034 10.4678 31.8098 10.4716 31.8164L15.4033 40.355C15.406 40.3599 15.4082 40.365 15.411 40.3699C15.4131 40.3735 15.4158 40.3767 15.418 40.3803L16.2193 41.7678C16.2357 41.7976 16.2398 41.8327 16.2308 41.8656C16.2218 41.8985 16.2003 41.9265 16.171 41.9439ZM37.8341 29.1931C37.736 29.2772 37.6388 29.3624 37.5426 29.4486L26.265 38.3269C25.3539 39.0451 24.3498 39.2342 23.1056 38.9225L20.0413 38.153C19.5967 38.0354 19.1331 38.0079 18.6777 38.0719C18.2223 38.1359 17.7843 38.2903 17.3893 38.5259L16.159 39.2366L11.7955 31.6813L15.4146 29.115C16.4573 28.377 17.3615 28.1612 18.3458 28.4158L26.0335 30.4157C26.7571 30.6036 27.2775 31.0931 27.4613 31.7586C27.6291 32.3661 27.4796 33.021 27.0808 33.4258C26.6304 33.8833 25.8923 34.0075 25.0027 33.7765L20.3939 32.5774C20.2382 32.5369 20.0727 32.5599 19.9339 32.6414C19.7951 32.7229 19.6944 32.8562 19.6538 33.012C19.6133 33.1678 19.6364 33.3333 19.7179 33.4721C19.7994 33.6108 19.9327 33.7116 20.0884 33.7521L24.6976 34.9511C26.4884 35.4165 27.5014 34.7289 27.9459 34.2775C28.216 33.9966 28.426 33.6636 28.5631 33.2989C28.7002 32.9341 28.7615 32.5452 28.7432 32.156L37.1262 26.6982C37.324 26.5935 37.5549 26.5703 37.7696 26.6336C38.101 26.7301 38.3812 26.9532 38.5495 27.2545C39.0141 28.0618 38.7224 28.4274 37.8341 29.1931ZM9.50994 32.5481C9.55612 32.6131 9.58906 32.6865 9.60686 32.7642C9.62466 32.8419 9.62699 32.9223 9.61371 33.0009C9.60042 33.0795 9.57179 33.1547 9.52944 33.2223C9.48709 33.2898 9.43185 33.3483 9.36688 33.3945C9.30191 33.4407 9.22848 33.4736 9.15079 33.4914C9.07309 33.5092 8.99265 33.5115 8.91406 33.4983C8.83546 33.485 8.76025 33.4563 8.69272 33.414C8.6252 33.3716 8.56667 33.3164 8.52049 33.2514L8.50821 33.2341C8.41497 33.1029 8.37766 32.9401 8.4045 32.7814C8.43133 32.6227 8.52012 32.4811 8.65132 32.3879C8.71628 32.3417 8.7897 32.3088 8.86738 32.291C8.94507 32.2732 9.0255 32.2709 9.10408 32.2842C9.26279 32.311 9.40433 32.3998 9.49758 32.531L9.50994 32.5481ZM27.606 2.20165C27.6262 2.042 27.7091 1.89692 27.8363 1.79832C27.9635 1.69973 28.1246 1.65567 28.2843 1.67584C30.503 1.95915 32.6089 2.81837 34.3926 4.16806C36.1762 5.51774 37.5754 7.31086 38.451 9.36907L38.7815 7.85821C38.7985 7.78036 38.8307 7.70663 38.8763 7.64122C38.9218 7.57582 38.9798 7.52002 39.0469 7.47701C39.114 7.43401 39.1889 7.40464 39.2673 7.39058C39.3458 7.37653 39.4262 7.37806 39.504 7.39509C39.5819 7.41213 39.6556 7.44432 39.721 7.48985C39.7864 7.53538 39.8422 7.59335 39.8852 7.66044C39.9282 7.72753 39.9576 7.80244 39.9717 7.88088C39.9857 7.95932 39.9842 8.03977 39.9672 8.11762L39.1561 11.8246C39.1335 11.9278 39.0843 12.0234 39.0134 12.1017C38.9424 12.1801 38.8523 12.2386 38.7518 12.2714C38.6514 12.3043 38.5441 12.3103 38.4406 12.2889C38.3371 12.2675 38.2409 12.2195 38.1617 12.1495L35.3192 9.63617C35.1986 9.52953 35.1253 9.37937 35.1155 9.21871C35.1056 9.05805 35.16 8.90006 35.2666 8.77949C35.3733 8.65892 35.5234 8.58565 35.6841 8.5758C35.8448 8.56595 36.0028 8.62032 36.1233 8.72696L37.3026 9.76968C36.5026 7.92474 35.2366 6.31954 33.6288 5.11164C32.0211 3.90374 30.1269 3.13467 28.1322 2.87991C28.0531 2.86994 27.9768 2.84449 27.9075 2.805C27.8382 2.76552 27.7774 2.71278 27.7286 2.6498C27.6797 2.58681 27.6437 2.51482 27.6227 2.43792C27.6017 2.36103 27.596 2.28074 27.606 2.20165ZM14.1624 11.562C14.6564 9.39347 15.7046 7.39022 17.2044 5.74795C18.7042 4.10567 20.6044 2.88056 22.7193 2.19231L21.3012 1.76577C21.2249 1.74279 21.1539 1.70501 21.0922 1.65458C21.0305 1.60414 20.9793 1.54205 20.9416 1.47184C20.9039 1.40164 20.8803 1.32469 20.8724 1.24539C20.8644 1.16609 20.8721 1.086 20.8951 1.00969C20.9181 0.933379 20.9559 0.86234 21.0063 0.80063C21.0567 0.738919 21.1188 0.687746 21.189 0.650033C21.2592 0.612319 21.3362 0.588803 21.4155 0.580828C21.4948 0.572853 21.5749 0.580574 21.6512 0.603551L25.2848 1.69685C25.3861 1.72734 25.4776 1.78375 25.5504 1.86051C25.6231 1.93726 25.6745 2.0317 25.6996 2.13445C25.7246 2.2372 25.7223 2.3447 25.693 2.44631C25.6637 2.54792 25.6083 2.6401 25.5324 2.71372L22.8078 5.35479C22.7507 5.41092 22.6831 5.45519 22.6088 5.48506C22.5345 5.51494 22.4551 5.52982 22.375 5.52886C22.295 5.52789 22.2159 5.5111 22.1424 5.47945C22.0689 5.4478 22.0023 5.40191 21.9466 5.34443C21.8909 5.28695 21.8471 5.21902 21.8178 5.14454C21.7884 5.07006 21.7741 4.99051 21.7756 4.91048C21.7771 4.83044 21.7945 4.7515 21.8267 4.67819C21.8588 4.60489 21.9052 4.53868 21.9631 4.48337L23.1563 3.32626C21.2274 3.94148 19.4923 5.04933 18.1226 6.54035C16.7529 8.03137 15.7958 9.85396 15.3461 11.828C15.3108 11.9851 15.2146 12.1218 15.0786 12.2079C14.9426 12.2941 14.7779 12.3226 14.6208 12.2874C14.4637 12.2521 14.3271 12.1559 14.2409 12.0198C14.1548 11.8838 14.1262 11.7192 14.1615 11.5621L14.1624 11.562Z" fill="url(#paint0_linear_178_2968)"/>
</g>
<defs>
<linearGradient id="paint0_linear_178_2968" x1="5.42113" y1="22.7134" x2="39.9813" y2="22.7134" gradientUnits="userSpaceOnUse">
<stop stop-color="#358AB3"/>
<stop offset="1" stop-color="#7CC4C0"/>
</linearGradient>
<clipPath id="clip0_178_2968">
<rect width="44.2716" height="44.2716" fill="white" transform="translate(0.56543 0.577675)"/>
</clipPath>
</defs>
</svg>
