<svg width="58" height="56" viewBox="0 0 58 56" fill="none" xmlns="http://www.w3.org/2000/svg">
<path d="M39.7304 46.9441L28.2684 43.6636L16.8063 46.9441C16.7071 47.1409 16.674 47.3378 16.674 47.5674V54.3471H39.8628V47.5674C39.8628 47.3378 39.8297 47.1409 39.7304 46.9441Z" fill="#646D73"/>
<path d="M39.8628 54.3471V47.5674C39.8628 47.3378 39.8297 47.1409 39.7304 46.9441L28.2684 43.6636V54.3471H39.8628Z" fill="#474F54"/>
<path d="M54.8804 3.28048H46.417C46.4316 2.72641 46.4882 2.20448 46.4882 1.64024C46.4882 0.721596 45.7595 0 44.8319 0H11.7049C10.7772 0 10.0485 0.721596 10.0485 1.64024C10.0485 2.20448 10.1052 2.72641 10.1195 3.28048H1.65635C0.74083 3.28048 0 4.01411 0 4.92072V9.07578C0 18.2342 7.40852 25.674 16.5384 26.153C18.4405 28.7463 20.6979 30.6709 23.2662 31.7551C22.8687 39.7266 18.264 45.2706 17.1709 46.4189C17.0052 46.55 16.8727 46.7469 16.8064 46.9437H39.7304C39.6641 46.7469 39.5317 46.55 39.3659 46.4189C38.2396 45.2706 33.6681 39.7594 33.2705 31.7551C35.8394 30.6706 38.1104 28.7457 40.014 26.1513C49.1361 25.6646 56.5368 18.2291 56.5368 9.07578V4.92072C56.5368 4.01411 55.7959 3.28048 54.8804 3.28048ZM3.3127 9.07578V6.56096H10.2616C10.6915 11.9823 11.8787 17.724 14.3738 22.6034C8.11943 21.2086 3.3127 15.6854 3.3127 9.07578ZM53.2241 9.07578C53.2241 15.682 48.4216 21.2026 42.1719 22.6005C44.6473 17.7213 45.841 12.0351 46.2751 6.56096H53.2241V9.07578Z" fill="#FED843"/>
<path d="M54.8804 3.28066H46.417C46.4316 2.72659 46.4882 2.20467 46.4882 1.64042C46.4882 0.72178 45.7595 0.000183105 44.8319 0.000183105H28.2684V46.9439H39.7304C39.6641 46.747 39.5317 46.5502 39.3659 46.4191C38.2396 45.2708 33.6681 39.7596 33.2705 31.7552C35.8394 30.6708 38.1104 28.7458 40.014 26.1515C49.1361 25.6648 56.5367 18.2293 56.5367 9.07596V4.9209C56.5367 4.01429 55.7959 3.28066 54.8804 3.28066ZM53.224 9.07596C53.224 15.6822 48.4216 21.2028 42.1719 22.6007C44.6475 17.7215 45.8413 12.0353 46.2751 6.56114H53.224V9.07596Z" fill="#FABE2C"/>
<path d="M30.9118 20.8634L28.2687 19.5035L25.6256 20.8634C25.0724 21.1453 24.3963 21.0989 23.8884 20.7353C23.6395 20.5564 23.4459 20.3123 23.3293 20.0305C23.2127 19.7487 23.1778 19.4403 23.2284 19.1399L23.7137 16.2261L21.5948 14.1551C21.1336 13.7098 20.9926 13.0497 21.1807 12.4796C21.2762 12.19 21.4511 11.9324 21.6859 11.7355C21.9207 11.5387 22.2061 11.4103 22.5103 11.3648L25.4542 10.9259L26.787 8.28771C27.35 7.17607 29.1874 7.17607 29.7504 8.28771L31.0832 10.9259L34.0271 11.3648C34.3312 11.4104 34.6166 11.5387 34.8514 11.7356C35.0862 11.9324 35.2611 12.19 35.3567 12.4796C35.4523 12.7693 35.4641 13.0798 35.391 13.3758C35.3178 13.6719 35.1625 13.9418 34.9426 14.1551L32.8237 16.2261L33.309 19.1399C33.3596 19.4403 33.3247 19.7487 33.2081 20.0305C33.0915 20.3124 32.8979 20.5564 32.649 20.7353C32.1444 21.0973 31.4695 21.1508 30.9118 20.8634Z" fill="#FABE2C"/>
<path d="M30.9115 20.8635C31.4693 21.1509 32.1442 21.0974 32.6486 20.7353C32.8975 20.5565 33.0912 20.3124 33.2078 20.0306C33.3243 19.7488 33.3593 19.4403 33.3086 19.1399L32.8233 16.2262L34.9422 14.1551C35.1622 13.9419 35.3175 13.672 35.3907 13.3759C35.4638 13.0798 35.4519 12.7694 35.3563 12.4797C35.2608 12.1901 35.0859 11.9324 34.8511 11.7356C34.6164 11.5387 34.3309 11.4104 34.0267 11.3649L31.0828 10.9259L29.75 8.28777C29.4686 7.73195 28.8685 7.45398 28.2684 7.45398V19.5035L30.9115 20.8635Z" fill="#FF9100"/>
<path d="M41.5192 55.9872H15.0176C14.1021 55.9872 13.3613 55.2536 13.3613 54.347C13.3613 53.4404 14.1021 52.7067 15.0176 52.7067H41.5192C42.4347 52.7067 43.1756 53.4404 43.1756 54.347C43.1756 55.2536 42.4347 55.9872 41.5192 55.9872Z" fill="#474F54"/>
<path d="M41.5192 52.7067H28.2684V55.9872H41.5192C42.4347 55.9872 43.1755 55.2536 43.1755 54.347C43.1755 53.4404 42.4347 52.7067 41.5192 52.7067Z" fill="#32393F"/>
</svg>
