<svg width="41" height="41" viewBox="0 0 41 41" fill="none" xmlns="http://www.w3.org/2000/svg">
<path d="M27.1666 30.6089L30.5 33.9423L37.1666 27.2756M20.5 25.6089H13.8333C10.727 25.6089 9.1739 25.6089 7.94876 26.1164C6.31524 26.793 5.01741 28.0909 4.34078 29.7244C3.83331 30.9495 3.83331 32.5027 3.83331 35.6089M26.3333 6.09355C28.7765 7.08252 30.5 9.4778 30.5 12.2756C30.5 15.0734 28.7765 17.4687 26.3333 18.4577M23 12.2756C23 15.9575 20.0152 18.9423 16.3333 18.9423C12.6514 18.9423 9.66665 15.9575 9.66665 12.2756C9.66665 8.59372 12.6514 5.60895 16.3333 5.60895C20.0152 5.60895 23 8.59372 23 12.2756Z" stroke="white" stroke-width="2.5" stroke-linecap="round" stroke-linejoin="round"/>
</svg>
