<svg width="40" height="38" viewBox="0 0 40 38" fill="none" xmlns="http://www.w3.org/2000/svg">
<path d="M2.29682 36.2305C2.3196 36.4926 2.39491 36.7472 2.51816 36.979C2.64141 37.2107 2.81001 37.4146 3.01372 37.5784C3.21742 37.7421 3.45195 37.8623 3.70304 37.9314C3.95413 38.0006 4.21652 38.0174 4.47424 37.9808C7.4677 37.9013 10.3423 36.7799 12.6128 34.8061C12.6871 34.7091 12.7925 34.6412 12.9109 34.6141C13.0293 34.5869 13.1533 34.6022 13.2618 34.6572C24.6393 38.5452 38.7833 31.4687 39.9713 19.3125C40.1063 16.9788 39.7638 14.642 38.9652 12.4482C38.1666 10.2544 36.929 8.25063 35.3298 6.56215C24.2362 -5.94606 1.24743 0.44825 0.0164612 17.1097C-0.128206 20.3174 0.68422 23.495 2.34829 26.23C2.91809 27.1685 3.56111 28.0595 4.27122 28.8945C4.41834 29.0984 4.51025 29.3375 4.53786 29.5883C4.66818 30.4946 4.59541 31.419 4.32494 32.2931C4.05447 33.1672 3.5932 33.9687 2.97521 34.6384C2.75174 34.8357 2.57481 35.0812 2.45742 35.3567C2.34003 35.6322 2.28516 35.9307 2.29682 36.2305ZM3.98957 35.6552C4.76283 34.8302 5.34136 33.8389 5.68181 32.7557C6.02226 31.6724 6.11579 30.5254 5.9554 29.4004C5.89214 28.8667 5.68157 28.3618 5.34778 27.9435C-9.26367 9.36617 20.1022 -8.26876 34.2776 7.54067C46.9196 21.8527 29.4224 38.6963 13.6593 33.2682C13.322 33.1449 12.9569 33.1209 12.6066 33.199C12.2564 33.2772 11.9352 33.4543 11.6806 33.7098C9.63883 35.4771 7.05566 36.4769 4.36844 36.5398C3.79013 36.6048 3.45844 36.1163 3.98957 35.6552ZM9.64043 25.3996H30.371C30.9396 25.399 31.4847 25.1704 31.8867 24.764C32.2888 24.3575 32.5149 23.8064 32.5155 23.2316V22.1475C32.5147 21.7182 32.388 21.2987 32.1513 20.9423C31.9146 20.5858 31.5786 20.3083 31.1859 20.145C31.0839 17.7703 30.2894 15.4792 28.9024 13.5599C27.5155 11.6407 25.598 10.179 23.3912 9.35894L23.2933 8.36742C23.2522 7.9405 23.055 7.54444 22.7404 7.25668C22.4257 6.96893 22.0162 6.81018 21.5919 6.81148H18.4195C17.9952 6.81018 17.5857 6.96893 17.271 7.25668C16.9564 7.54444 16.7592 7.9405 16.7181 8.36742L16.6202 9.35894C14.4132 10.179 12.4955 11.6407 11.1083 13.5601C9.72121 15.4795 8.9267 17.7708 8.82479 20.1457C8.43234 20.3092 8.09663 20.5866 7.86009 20.9429C7.62356 21.2992 7.49682 21.7184 7.49589 22.1475V23.2316C7.49646 23.8064 7.72258 24.3575 8.12464 24.764C8.5267 25.1704 9.07184 25.399 9.64043 25.3996ZM16.4929 10.9626C17.0005 10.6648 17.9119 10.7118 17.9963 9.97539L18.1407 8.51123C18.1474 8.44134 18.1798 8.37651 18.2313 8.32946C18.2829 8.28241 18.35 8.25651 18.4195 8.25685H21.5919C21.6614 8.25651 21.7285 8.28241 21.7801 8.32946C21.8316 8.37651 21.864 8.44134 21.8707 8.51123L22.0158 9.97539C22.1002 10.7125 23.0095 10.6648 23.5184 10.9626V14.5731C23.5113 15.0038 22.8522 14.8188 22.577 14.8564C22.4233 14.286 22.0884 13.7825 21.6237 13.4235C21.159 13.0646 20.5905 12.8702 20.0057 12.8702C19.4209 12.8702 18.8524 13.0646 18.3877 13.4235C17.923 13.7825 17.5881 14.286 17.4344 14.8564C17.1599 14.8188 16.5008 15.0038 16.4929 14.5731V10.9626ZM21.2567 15.5784C21.2567 15.9138 21.1249 16.2355 20.8903 16.4726C20.6557 16.7098 20.3375 16.8431 20.0057 16.8431C19.6739 16.8431 19.3557 16.7098 19.1211 16.4726C18.8865 16.2355 18.7547 15.9138 18.7547 15.5784C18.7547 15.2429 18.8865 14.9213 19.1211 14.6841C19.3557 14.4469 19.6739 14.3137 20.0057 14.3137C20.3375 14.3137 20.6557 14.4469 20.8903 14.6841C21.1249 14.9213 21.2567 15.2429 21.2567 15.5784ZM15.0632 11.7221V14.5731C15.0638 15.0313 15.2442 15.4706 15.5647 15.7946C15.8853 16.1185 16.3199 16.3007 16.7732 16.301H17.4344C17.5927 16.8672 17.9295 17.3656 18.3936 17.7205C18.8577 18.0754 19.4238 18.2675 20.0057 18.2675C20.5876 18.2675 21.1537 18.0754 21.6178 17.7205C22.0819 17.3656 22.4187 16.8672 22.577 16.301H23.2382C23.6915 16.3007 24.1261 16.1185 24.4466 15.7946C24.7672 15.4706 24.9476 15.0313 24.9481 14.5731V11.7221C26.3305 12.6246 27.4852 13.8412 28.3199 15.2749C29.1547 16.7085 29.6466 18.3196 29.7562 19.9795H10.2552C10.3649 18.3197 10.8568 16.7088 11.6916 15.2753C12.5264 13.8417 13.681 12.6245 15.0632 11.7221ZM8.92558 22.1475C8.92577 21.9559 9.00115 21.7722 9.13517 21.6367C9.26919 21.5013 9.4509 21.4251 9.64043 21.4249H30.371C30.5605 21.4251 30.7422 21.5013 30.8762 21.6367C31.0102 21.7722 31.0856 21.9559 31.0858 22.1475C31.0443 22.7821 31.3317 23.9138 30.371 23.9543H9.64043C9.4509 23.9541 9.26919 23.8779 9.13517 23.7424C9.00115 23.6069 8.92577 23.4232 8.92558 23.2316V22.1475Z" fill="url(#paint0_linear_178_2986)"/>
<defs>
<linearGradient id="paint0_linear_178_2986" x1="-0.00076697" y1="18.9996" x2="40.0002" y2="18.9996" gradientUnits="userSpaceOnUse">
<stop stop-color="#358AB3"/>
<stop offset="1" stop-color="#7CC4C0"/>
</linearGradient>
</defs>
</svg>
